<?xml version="1.0" standalone="no"?>
<!DOCTYPE svg PUBLIC "-//W3C//DTD SVG 20010904//EN"
 "http://www.w3.org/TR/2001/REC-SVG-20010904/DTD/svg10.dtd">
<svg version="1.0" xmlns="http://www.w3.org/2000/svg"
 width="800.000000pt" height="800.000000pt" viewBox="0 0 800.000000 800.000000"
 preserveAspectRatio="xMidYMid meet">
<metadata>
Created by potrace 1.14, written by Peter Selinger 2001-2017
</metadata>
<g transform="translate(0.000000,800.000000) scale(0.100000,-0.100000)"
fill="#000000" stroke="none">
<path d="M46 6174 c-20 -19 -13 -32 8 -15 8 7 21 11 30 9 8 -2 16 2 18 7 5 17
-39 17 -56 -1z"/>
<path d="M90 6140 c0 -5 5 -10 11 -10 5 0 7 5 4 10 -3 6 -8 10 -11 10 -2 0 -4
-4 -4 -10z"/>
<path d="M3980 5961 c0 -5 9 -7 20 -4 11 3 20 7 20 9 0 2 -9 4 -20 4 -11 0
-20 -4 -20 -9z"/>
<path d="M4101 5936 c10 -9 69 -36 69 -32 0 6 -55 36 -66 36 -4 0 -5 -2 -3 -4z"/>
<path d="M3910 5920 c8 -5 22 -10 30 -10 13 0 13 1 0 10 -8 5 -22 10 -30 10
-13 0 -13 -1 0 -10z"/>
<path d="M3750 5903 c-19 -2 -42 -7 -50 -10 -8 -3 -19 -5 -25 -5 -5 1 0 -5 13
-14 12 -9 22 -21 22 -26 0 -5 -7 -2 -16 6 -24 24 -34 19 -30 -14 3 -26 0 -31
-23 -35 -14 -3 -60 -16 -101 -30 -41 -13 -95 -29 -119 -35 -57 -15 -92 -40
-85 -61 5 -17 -32 -27 -176 -45 -30 -4 -49 -9 -42 -11 6 -3 12 -8 12 -12 0 -7
-114 -38 -160 -43 -15 -2 -25 -9 -25 -19 0 -17 -19 -38 -50 -58 -19 -11 -18
-11 5 -5 14 4 28 12 32 18 4 6 8 7 8 3 0 -4 9 -3 20 3 11 6 20 7 20 2 0 -19
-37 -39 -93 -51 -56 -12 -122 -54 -112 -71 3 -5 1 -11 -5 -15 -18 -11 -11 -35
10 -35 11 0 20 -5 20 -11 0 -7 -10 -9 -25 -7 -27 6 -35 -9 -10 -18 24 -10 7
-23 -24 -19 -24 3 -28 0 -24 -15 3 -12 -2 -20 -14 -24 -10 -3 -19 -15 -20 -26
-1 -16 2 -20 18 -15 11 4 26 0 36 -11 16 -16 16 -16 -5 -10 -13 5 -22 3 -22
-4 0 -6 -11 -8 -25 -6 -13 3 -27 0 -30 -5 -4 -5 -1 -9 4 -9 21 0 11 -22 -25
-55 -20 -19 -33 -38 -30 -43 10 -17 14 -62 5 -62 -5 0 -9 -6 -9 -13 0 -7 -8
-28 -18 -47 -11 -21 -17 -55 -16 -87 0 -29 -2 -53 -5 -53 -11 0 -4 -59 8 -74
14 -17 5 -40 -11 -30 -6 4 -8 3 -5 -3 4 -6 2 -24 -3 -42 -6 -22 -5 -31 3 -31
8 -1 6 -5 -3 -13 -20 -16 -22 -31 -9 -64 6 -15 12 -55 14 -88 2 -60 41 -195
56 -195 4 0 10 -13 14 -30 4 -16 10 -30 15 -30 4 0 21 -44 38 -97 69 -220 74
-243 48 -243 -10 0 -15 -30 -20 -124 -6 -115 -5 -127 15 -162 11 -21 23 -54
25 -74 4 -39 36 -160 53 -203 6 -16 11 -53 11 -83 0 -31 4 -63 9 -72 4 -9 5
-44 1 -77 -4 -37 -3 -63 3 -66 14 -10 0 -40 -22 -46 -16 -4 -17 -9 -8 -34 13
-32 33 -38 40 -11 2 9 3 2 1 -15 -2 -24 1 -33 12 -33 17 0 18 -12 2 -28 -9 -9
-7 -12 11 -12 21 0 22 -2 10 -17 -10 -11 -10 -14 -1 -9 7 4 12 2 12 -4 0 -6 5
-8 10 -5 14 9 13 -8 -2 -23 -8 -8 -8 -12 -1 -12 6 0 13 -9 16 -20 3 -11 12
-20 19 -20 8 0 25 -20 37 -43 12 -24 34 -56 47 -70 14 -15 22 -27 18 -27 -3 0
-1 -6 6 -14 9 -12 4 -17 -31 -26 -31 -9 -49 -9 -66 -1 -30 14 -73 14 -73 1 0
-6 11 -8 25 -4 15 4 32 1 41 -7 8 -7 43 -18 77 -25 l62 -12 -72 -1 c-40 -1
-73 -5 -73 -10 0 -4 8 -19 18 -32 10 -13 24 -37 31 -54 25 -55 29 -60 46 -57
26 5 51 40 69 99 17 53 37 79 35 46 -2 -57 -27 -158 -38 -158 -19 0 -40 -44
-121 -260 -7 -19 -14 -25 -18 -18 -10 16 -75 43 -102 43 -13 0 -20 -7 -20 -20
0 -22 -16 -27 -22 -8 -5 13 -28 2 -28 -13 0 -6 5 -7 12 -3 7 4 8 3 4 -5 -4 -6
-12 -9 -17 -6 -5 4 -9 1 -9 -6 0 -6 8 -9 20 -6 11 3 21 1 21 -4 1 -5 2 -15 3
-21 0 -7 12 -15 25 -16 15 -3 21 0 16 7 -4 7 -1 10 7 9 7 -2 12 2 11 9 -1 6 5
17 14 25 15 11 16 10 11 -9 -4 -13 -2 -23 3 -23 5 0 9 4 9 8 0 4 9 8 20 8 11
0 20 -6 20 -13 0 -15 -47 -36 -61 -27 -5 3 -16 -2 -25 -10 -14 -14 -37 -21
-48 -13 -2 1 -13 -6 -24 -16 -11 -10 -23 -17 -28 -15 -5 1 -21 -10 -37 -25
-15 -16 -32 -25 -39 -21 -7 4 -8 3 -4 -4 4 -7 -4 -14 -21 -18 -15 -4 -33 -11
-39 -16 -6 -4 -20 -5 -29 -1 -13 4 -16 3 -11 -5 10 -17 -11 -15 -39 4 -15 10
-25 12 -25 5 0 -6 8 -11 17 -11 13 0 14 -3 5 -12 -9 -9 -17 -9 -36 1 -14 8
-36 10 -55 6 -22 -5 -31 -3 -31 6 0 8 -7 6 -20 -6 -13 -12 -27 -15 -45 -11
-17 4 -24 3 -20 -4 4 -6 -4 -10 -20 -10 -14 0 -36 -6 -48 -14 -14 -8 -32 -10
-47 -6 l-25 7 30 12 c17 6 39 15 50 20 11 5 27 10 35 10 8 0 35 5 59 11 25 6
48 7 55 2 7 -6 18 -2 29 10 18 19 18 19 0 17 -22 -3 -55 10 -49 20 2 3 -19 6
-47 6 -37 0 -57 -5 -68 -17 -9 -10 -18 -15 -21 -13 -3 3 -16 -5 -29 -19 -18
-19 -30 -23 -59 -19 -19 3 -42 7 -50 10 -22 9 -43 5 -81 -15 -34 -17 -39 -23
-39 -43 0 -5 -4 -8 -8 -5 -5 3 -28 -1 -53 -9 -39 -12 -40 -14 -15 -14 43 -1
27 -10 -30 -16 -67 -8 -84 -14 -84 -31 0 -8 -5 -14 -11 -14 -5 0 -8 4 -5 9 4
5 -5 4 -18 -2 -13 -7 -22 -15 -20 -18 2 -4 -12 -10 -31 -13 -19 -4 -35 -11
-35 -17 0 -5 -6 -9 -12 -8 -25 3 -39 -1 -33 -10 5 -9 -42 -36 -74 -43 -23 -5
-60 -39 -55 -52 2 -6 -23 -24 -58 -41 -63 -28 -108 -61 -108 -77 0 -13 78 30
88 49 9 15 12 14 36 -10 14 -14 23 -32 20 -40 -7 -18 21 -41 38 -31 10 6 10 5
0 -8 -11 -14 -10 -17 10 -20 13 -2 22 -9 21 -16 -2 -6 3 -12 10 -12 8 0 7 -4
-3 -10 -8 -5 -22 -10 -30 -10 -13 0 -13 1 0 10 12 8 11 10 -6 10 -12 0 -27 7
-34 15 -7 8 -10 15 -7 15 3 0 -5 11 -19 25 -14 14 -29 25 -34 25 -6 0 -10 5
-10 10 0 6 5 10 12 10 6 0 9 3 5 6 -3 3 -28 -5 -56 -18 -36 -16 -51 -29 -51
-43 0 -17 -2 -17 -10 -5 -9 13 -15 9 -41 -20 -35 -39 -152 -228 -194 -311 -15
-30 -48 -85 -73 -123 -34 -52 -51 -93 -73 -175 -50 -193 -59 -222 -83 -274
-13 -29 -35 -91 -50 -138 -14 -48 -33 -89 -41 -93 -8 -3 -15 -10 -15 -16 0 -6
5 -8 12 -4 8 5 9 0 4 -17 -3 -13 -13 -48 -21 -78 -8 -30 -22 -64 -30 -77 -8
-13 -15 -26 -15 -29 0 -3 1510 -5 3355 -5 l3355 0 -7 33 c-66 346 -305 1023
-441 1252 -70 118 -219 325 -234 325 -15 0 -8 -11 24 -43 56 -56 248 -360 235
-373 -2 -3 -10 9 -17 26 -7 16 -18 30 -25 30 -7 0 -18 14 -24 30 -5 17 -8 30
-6 30 3 0 -2 8 -10 18 -7 9 -32 40 -55 67 -22 27 -44 50 -48 50 -12 1 -52 29
-52 38 0 4 9 3 20 -3 27 -14 25 -4 -7 39 -34 45 -45 53 -55 38 -5 -8 -9 -6
-14 6 -4 11 0 25 10 36 19 20 20 31 6 31 -6 0 -16 -13 -23 -29 l-12 -29 -40
19 c-21 11 -41 23 -44 28 -4 4 -19 11 -35 15 -26 6 -27 8 -12 25 9 10 13 21 9
24 -11 11 -23 8 -20 -5 1 -7 -8 -14 -20 -16 -24 -4 -32 13 -10 22 6 3 0 3 -15
0 -17 -4 -28 -2 -28 5 0 6 -5 11 -11 11 -5 0 -8 -4 -4 -10 3 -5 -9 -4 -27 2
l-33 12 31 9 c31 9 31 10 13 28 -11 11 -28 19 -39 19 -22 0 -27 15 -7 23 7 4
5 6 -5 7 -29 4 -32 5 -61 24 -18 12 -47 19 -80 20 -50 1 -52 2 -51 28 1 27 0
27 -53 26 -29 -1 -59 4 -65 10 -7 7 -24 12 -39 12 -15 0 -34 7 -42 15 -22 22
-92 22 -116 1 -11 -10 -26 -16 -33 -13 -8 3 -6 6 5 6 10 1 15 6 12 12 -5 7
-12 6 -23 -4 -10 -7 -35 -14 -57 -15 -27 -2 -35 1 -26 7 7 5 11 13 8 18 -4 6
13 16 36 23 23 7 53 19 67 27 24 13 24 14 3 10 -24 -5 -32 8 -10 16 6 2 0 4
-15 4 -23 0 -28 -4 -28 -23 0 -23 -2 -24 -80 -24 -44 0 -80 4 -80 8 0 5 -16
17 -35 27 -28 16 -32 22 -22 34 10 12 9 13 -8 4 -11 -6 -29 -7 -40 -2 -19 7
-19 8 2 8 12 1 25 6 28 11 4 6 14 9 23 6 83 -23 85 -16 9 28 -79 45 -137 66
-137 48 0 -15 -180 -12 -219 4 -18 8 -44 12 -57 10 -13 -3 -30 2 -38 9 -7 8
-25 17 -39 21 -15 3 -29 15 -33 27 -3 11 -16 30 -29 41 -12 12 -20 27 -18 34
3 6 0 12 -6 12 -6 0 -11 -6 -12 -12 0 -7 -5 -3 -11 9 -6 13 -17 23 -25 23 -14
0 -13 -12 5 -59 3 -9 1 -12 -6 -7 -7 4 -12 12 -12 17 0 13 -52 90 -57 85 -3
-3 2 -29 11 -59 29 -99 16 -94 -18 6 -19 55 -42 107 -51 117 -9 10 -14 24 -10
30 3 6 1 9 -7 8 -7 -2 -12 3 -10 11 5 26 -19 83 -34 77 -27 -10 -18 100 13
166 27 56 51 79 40 38 -3 -11 -2 -20 3 -20 4 0 10 14 12 30 3 22 1 30 -11 30
-13 0 -13 2 -3 9 8 4 13 12 12 17 -5 26 14 111 28 128 13 15 14 20 4 23 -10 4
-9 9 4 24 12 14 15 29 11 61 -3 23 -2 36 2 29 6 -10 10 -9 15 4 8 23 8 27 -4
20 -12 -7 0 27 12 35 4 3 9 17 11 30 3 20 12 26 45 33 42 8 54 21 30 30 -10 4
-10 6 0 6 8 1 2 11 -13 25 -22 21 -25 30 -20 59 4 22 18 43 36 56 34 25 40 56
9 46 -25 -8 -25 -1 -3 25 16 19 18 19 25 3 4 -10 5 3 3 30 -2 26 0 45 5 42 5
-3 7 -13 4 -23 -2 -9 3 -2 11 16 9 18 12 38 9 44 -4 6 -3 8 3 5 6 -4 18 11 28
32 15 33 16 47 6 88 -6 26 -14 89 -18 138 -8 88 -9 90 -34 91 -37 1 -51 13
-44 35 4 13 2 19 -9 19 -18 0 -21 11 -7 26 4 5 16 48 26 97 10 48 22 87 26 87
5 0 4 11 -1 24 -5 15 -5 26 0 28 14 4 46 97 49 139 1 18 3 122 4 229 2 225
-12 311 -68 410 -44 79 -85 131 -96 124 -5 -3 -9 2 -9 10 0 9 -6 16 -14 16 -8
0 -23 10 -33 23 -25 32 -63 56 -78 51 -7 -3 -15 2 -18 10 -4 11 -20 16 -48 16
-38 0 -41 -2 -36 -22 6 -21 5 -22 -7 -5 -11 13 -15 15 -19 5 -3 -7 -4 -3 -4 9
1 13 6 22 12 22 22 -3 35 2 35 12 0 6 -13 8 -31 5 -17 -2 -45 2 -62 9 -31 14
-31 14 -7 16 14 1 36 1 50 0 21 -1 19 2 -15 21 -31 18 -40 30 -42 53 -4 61
-14 91 -43 127 -17 20 -30 43 -31 50 0 7 -4 4 -8 -6 -7 -17 -10 -16 -36 17
-22 30 -30 35 -42 26 -10 -9 -12 -9 -8 3 3 8 -4 23 -16 34 -20 17 -22 17 -16
2 7 -19 -8 -25 -18 -8 -4 6 -16 8 -27 5 -14 -5 -21 -1 -25 13 -3 12 -20 25
-44 32 -50 17 -63 34 -20 28 23 -3 28 -2 19 6 -7 6 -18 18 -26 26 -10 11 -12
11 -6 1 5 -11 2 -13 -15 -8 -17 4 -21 2 -17 -9 8 -22 -14 -16 -77 20 -43 25
-54 35 -42 40 28 10 45 7 39 -8 -3 -9 6 -20 25 -29 34 -17 42 -9 11 11 -11 6
-17 17 -15 24 2 7 -11 23 -30 35 -34 21 -35 21 -35 2 0 -18 -3 -18 -52 8 -29
15 -55 30 -58 33 -13 18 -54 30 -116 35 -38 3 -80 6 -94 8 -14 2 -41 2 -60 0z
m-27 -110 c-7 -2 -21 -2 -30 0 -10 3 -4 5 12 5 17 0 24 -2 18 -5z m-526 -179
c-3 -3 -12 -4 -19 -1 -8 3 -5 6 6 6 11 1 17 -2 13 -5z m-37 -14 c0 -5 -2 -10
-4 -10 -3 0 -8 5 -11 10 -3 6 -1 10 4 10 6 0 11 -4 11 -10z m-6 -49 c-7 -9
-34 10 -34 24 0 13 3 12 18 -2 10 -10 17 -20 16 -22z m-209 -121 c3 -5 1 -10
-4 -10 -6 0 -11 5 -11 10 0 6 2 10 4 10 3 0 8 -4 11 -10z m1906 -217 c13 -16
12 -17 -3 -4 -10 7 -18 15 -18 17 0 8 8 3 21 -13z m-126 -13 c10 -11 13 -20 7
-20 -6 0 -16 9 -22 20 -6 11 -9 20 -7 20 2 0 12 -9 22 -20z m-750 -50 c-4 -6
4 -6 22 1 19 7 29 7 31 0 2 -6 31 -11 67 -11 35 0 67 -5 70 -11 4 -6 13 -8 20
-5 8 3 19 -2 25 -10 7 -8 18 -14 25 -14 8 0 34 -29 59 -65 25 -36 41 -65 35
-65 -6 0 -8 -4 -5 -9 4 -5 0 -12 -6 -14 -8 -4 -4 -8 9 -12 15 -5 27 -20 35
-46 10 -34 9 -42 -6 -58 -17 -18 -17 -20 4 -41 15 -15 20 -30 17 -46 -2 -14 0
-27 4 -30 5 -3 14 -15 21 -27 10 -20 10 -21 -5 -8 -10 8 -17 9 -17 3 0 -6 9
-14 20 -17 11 -3 20 -10 20 -14 0 -4 16 -13 35 -21 20 -8 34 -19 32 -24 -2 -6
7 -21 20 -32 l25 -21 -31 1 c-17 0 -31 4 -31 7 0 4 -11 9 -25 11 -19 4 -25 1
-23 -11 3 -13 -7 -16 -49 -16 -40 0 -53 4 -53 15 0 12 -2 12 -9 2 -4 -8 -17
-12 -27 -11 -11 2 -25 0 -31 -4 -7 -5 -13 -5 -13 0 0 13 -110 13 -110 0 0 -7
-4 -6 -10 3 -7 11 -12 12 -18 3 -4 -6 -20 -15 -35 -18 -15 -4 -27 -14 -27 -24
0 -12 -2 -13 -9 -3 -6 10 -16 6 -42 -17 -34 -32 -49 -38 -49 -22 0 10 -42 6
-70 -6 -18 -8 -26 -10 -42 -12 -7 -2 -4 -6 7 -11 19 -8 19 -9 -2 -9 -12 -1
-24 3 -28 9 -3 5 -12 7 -19 4 -8 -3 -20 1 -27 8 -7 8 -24 12 -39 10 -16 -2
-31 3 -39 12 -8 9 -28 16 -45 16 -20 0 -39 9 -54 24 -19 21 -27 23 -54 15 -21
-6 -36 -5 -45 2 -7 6 -21 8 -30 4 -10 -4 -52 -8 -95 -10 -42 -2 -86 -10 -98
-17 -18 -11 -23 -11 -27 0 -4 10 -8 10 -18 2 -18 -15 -85 8 -85 28 0 12 3 12
15 2 12 -10 15 -10 15 4 0 9 6 16 13 17 10 0 10 2 0 6 -7 2 -13 9 -13 15 0 6
-8 17 -17 24 -17 12 -17 13 0 19 9 4 17 15 17 25 0 29 11 50 26 50 8 0 14 7
14 15 0 8 9 15 20 15 11 0 20 5 20 11 0 5 -4 8 -9 5 -5 -3 -14 1 -21 9 -7 8
-16 13 -20 10 -5 -3 -12 0 -15 6 -4 6 2 13 14 16 22 6 27 18 11 28 -12 7 26
81 46 89 20 8 18 26 -3 26 -17 1 -17 1 0 11 9 5 17 16 17 23 0 17 65 78 87 80
30 4 77 18 90 28 7 6 36 12 64 14 28 2 57 8 64 14 8 6 27 12 44 12 17 1 28 4
26 9 -3 4 4 5 15 2 11 -3 20 -9 20 -13 0 -5 9 -6 20 -3 17 4 20 0 20 -25 0
-26 3 -29 22 -24 14 3 19 2 14 -6 -4 -7 -1 -12 9 -12 10 0 13 5 9 12 -5 8 -2
9 9 5 11 -4 17 -1 17 7 0 9 8 12 24 9 13 -3 27 0 30 6 4 6 12 11 17 11 6 0 7
-5 3 -12 -4 -7 -3 -8 4 -4 7 4 12 15 12 25 0 25 11 33 27 20 10 -9 13 -8 13 0
0 7 4 10 9 6 6 -3 15 4 21 15 6 11 15 20 21 20 6 0 7 -4 4 -10z m354 -124 c7
-8 8 -17 3 -20 -6 -3 -12 3 -15 14 -6 24 -4 25 12 6z m-1672 -2 c-3 -3 -12 -4
-19 -1 -8 3 -5 6 6 6 11 1 17 -2 13 -5z m-10 -56 c-3 -8 -6 -5 -6 6 -1 11 2
17 5 13 3 -3 4 -12 1 -19z m-22 -108 c3 -5 2 -10 -4 -10 -5 0 -13 5 -16 10 -3
6 -2 10 4 10 5 0 13 -4 16 -10z m1895 -330 c0 -5 -5 -10 -11 -10 -5 0 -7 5 -4
10 3 6 8 10 11 10 2 0 4 -4 4 -10z m-112 -47 c-27 -2 -69 -2 -95 0 -27 2 -5 3
47 3 52 0 74 -1 48 -3z m95 -10 c-7 -2 -19 -2 -25 0 -7 3 -2 5 12 5 14 0 19
-2 13 -5z m54 -9 c-3 -3 -12 -4 -19 -1 -8 3 -5 6 6 6 11 1 17 -2 13 -5z m-179
-11 c-16 -2 -40 -2 -55 0 -16 2 -3 4 27 4 30 0 43 -2 28 -4z m238 -9 c18 -14
18 -14 -6 -3 -31 14 -36 19 -24 19 6 0 19 -7 30 -16z m-143 -1 c-7 -2 -19 -2
-25 0 -7 3 -2 5 12 5 14 0 19 -2 13 -5z m-1060 -10 c-23 -2 -64 -2 -90 0 -26
2 -7 3 42 3 50 0 71 -1 48 -3z m-196 -9 c-3 -3 -12 -4 -19 -1 -8 3 -5 6 6 6
11 1 17 -2 13 -5z m-68 -8 c-2 -2 -20 -6 -39 -10 -25 -4 -31 -3 -20 4 14 9 69
15 59 6z m897 -11 c-11 -8 -24 -15 -29 -15 -26 0 -68 -45 -81 -88 -9 -29 -15
-38 -15 -24 -2 49 48 110 104 130 41 14 43 14 21 -3z m787 -51 c20 -29 37 -60
37 -70 0 -11 -19 10 -45 50 -25 38 -45 74 -45 80 0 12 6 6 53 -60z m-441 38
c9 13 7 1 -8 -53 -8 -29 -27 -18 -35 22 -9 42 -2 54 18 33 13 -13 18 -13 25
-2z m-1355 2 c-3 -3 -12 -4 -19 -1 -8 3 -5 6 6 6 11 1 17 -2 13 -5z m-33 -13
c4 -5 -4 -7 -16 -3 -11 3 -19 1 -16 -4 3 -5 -12 -10 -34 -11 -63 -2 -24 20 44
26 9 0 19 -3 22 -8z m166 -31 c13 -8 13 -10 -2 -10 -9 0 -20 5 -23 10 -8 13 5
13 25 0z m158 -55 c-21 -20 -105 -27 -111 -10 -6 15 44 31 63 20 5 -3 10 -2
10 3 0 5 12 7 26 4 21 -4 23 -7 12 -17z m-541 -82 c-3 -10 -5 -4 -5 12 0 17 2
24 5 18 2 -7 2 -21 0 -30z m2143 -17 c0 -12 -14 5 -31 39 -8 16 -6 15 10 -4
12 -13 21 -28 21 -35z m-1083 -12 c37 -50 41 -60 36 -100 -2 -25 0 -75 6 -112
19 -121 64 -181 140 -189 35 -4 91 -37 91 -54 0 -15 -45 -28 -71 -22 -13 4
-35 19 -51 35 -15 15 -34 28 -42 28 -18 0 -76 -32 -76 -42 0 -5 -9 -8 -20 -8
-11 0 -20 -5 -20 -11 0 -5 -5 -7 -10 -4 -6 3 -13 -1 -16 -10 -4 -10 -16 -15
-33 -13 -14 1 -32 -2 -40 -6 -10 -6 -12 -5 -7 2 4 7 1 12 -6 12 -22 1 -68 48
-68 70 0 15 -5 20 -17 18 -14 -2 -18 -12 -16 -40 1 -36 1 -36 -64 -58 -72 -24
-89 -18 -77 30 8 36 23 51 73 73 70 31 102 70 129 157 16 53 24 150 12 150 -5
0 -10 5 -10 11 0 5 5 7 10 4 6 -3 10 4 10 15 0 22 25 84 43 108 21 27 53 13
94 -44z m383 -13 c0 -9 6 -23 12 -29 10 -10 6 -10 -20 -1 -17 6 -30 14 -29 17
2 4 7 15 10 25 8 22 27 13 27 -12z m-970 -63 c0 -4 -9 -3 -20 4 -11 7 -20 19
-20 27 0 11 5 10 20 -4 11 -10 20 -22 20 -27z m360 -60 c-1 -25 -41 -103 -68
-131 -37 -40 -106 -73 -180 -87 -84 -17 -266 -9 -309 13 -34 18 -77 68 -87
104 -6 19 -4 21 15 18 13 -3 26 -10 31 -17 4 -7 8 -9 8 -4 0 5 8 2 18 -7 9 -8
34 -18 55 -22 20 -4 40 -11 43 -16 11 -19 190 27 261 66 23 13 58 28 77 35 19
6 37 17 40 25 3 8 16 15 30 15 14 0 28 5 31 10 9 14 35 12 35 -2z m441 -30 c0
-8 2 -9 5 -2 6 15 64 5 94 -16 14 -9 37 -20 53 -24 15 -3 27 -11 27 -16 0 -6
8 -10 18 -10 9 0 35 -7 57 -15 52 -18 86 -19 79 -2 -3 8 1 19 8 25 17 14 102
20 149 12 28 -5 42 -3 55 9 17 15 17 15 3 -9 -41 -68 -250 -115 -399 -90 -79
13 -154 56 -180 103 -13 24 -13 29 0 37 20 13 30 12 31 -2z m626 -12 c-3 -8 1
-17 10 -20 11 -5 14 -2 9 9 -3 9 -2 13 4 10 6 -3 10 -14 10 -23 1 -15 2 -15
11 1 10 17 12 17 37 1 39 -24 63 -57 49 -66 -8 -5 -8 -10 1 -20 6 -8 9 -23 6
-35 -4 -13 0 -22 11 -27 25 -9 9 -24 -20 -18 -15 2 -36 -3 -52 -14 -16 -10
-31 -17 -35 -16 -14 4 -8 -11 10 -25 16 -13 15 -14 -6 -8 -20 6 -21 4 -12 -20
13 -33 13 -48 0 -40 -5 3 -10 1 -10 -4 0 -6 5 -11 10 -11 6 0 10 -5 10 -11 0
-8 -5 -7 -16 2 -19 15 -28 4 -44 -53 -13 -45 -19 -49 -71 -50 -25 0 -37 -4
-31 -10 11 -11 4 -58 -9 -58 -5 0 -9 5 -9 10 0 6 -8 2 -18 -7 -10 -10 -14 -20
-10 -21 10 -4 0 -22 -11 -22 -8 0 -24 37 -23 51 1 3 -4 6 -11 6 -7 0 -28 3
-48 7 -27 5 -40 2 -50 -10 -11 -14 -11 -18 2 -28 23 -16 30 -48 16 -67 -7 -8
-32 -27 -57 -41 -44 -25 -46 -25 -64 -8 -10 10 -24 16 -32 13 -8 -3 -14 0 -14
6 0 6 -9 11 -19 11 -30 0 -51 11 -51 26 0 8 -6 11 -15 8 -18 -7 -20 13 -5 51
12 30 34 55 49 55 6 0 11 7 11 15 0 8 5 15 10 15 6 0 10 -5 10 -12 0 -6 3 -8
7 -5 3 4 12 -2 20 -13 8 -11 25 -20 38 -20 13 0 25 -5 27 -12 3 -7 7 -5 11 6
4 9 3 15 -2 12 -5 -3 -23 21 -40 54 -16 33 -44 77 -60 98 -16 20 -33 49 -36
63 -6 26 -5 27 42 33 74 9 135 10 168 3 33 -8 117 14 122 30 6 17 -35 23 -192
25 l-150 1 140 8 c187 9 261 33 323 103 18 21 32 30 35 23 2 -7 8 -9 12 -4 5
4 4 12 -2 18 -11 11 -7 39 4 39 3 0 3 -6 0 -14z m-1700 -149 c24 -27 111 -67
148 -68 17 0 23 -3 15 -6 -8 -2 -22 -7 -30 -10 -8 -3 -23 -5 -32 -4 -10 1 -18
-1 -18 -6 0 -18 41 -32 82 -28 105 11 254 16 264 8 7 -4 15 -26 18 -48 4 -22
9 -49 12 -60 4 -17 3 -17 -6 -5 -9 13 -11 12 -8 -5 2 -14 11 -20 28 -20 20 0
24 -4 22 -22 -2 -14 10 -33 34 -57 35 -34 36 -37 21 -54 -10 -10 -17 -24 -17
-31 0 -8 -6 -11 -15 -7 -8 3 -20 -3 -27 -12 -17 -22 -62 -42 -96 -42 -18 0
-38 11 -59 33 -25 26 -39 33 -66 32 -41 -1 -74 22 -79 56 -3 24 -10 26 -56 15
-30 -7 -52 2 -46 19 3 7 -1 15 -9 18 -8 3 -14 20 -15 38 -1 31 -21 56 -32 40
-3 -4 -13 -10 -23 -14 -9 -4 -16 -12 -15 -18 4 -16 -80 -18 -87 -2 -2 7 5 17
15 23 22 12 27 30 8 30 -31 0 -90 -102 -74 -128 3 -5 2 -22 -2 -37 -7 -24 -11
-13 -25 66 -24 136 -20 442 6 377 10 -28 25 -21 19 8 -3 18 -1 25 6 20 6 -3
21 4 34 17 l23 24 32 -60 c18 -33 40 -69 50 -80z m1873 -68 c0 -7 -11 -9 -29
-6 -18 4 -31 2 -33 -5 -2 -6 -10 -8 -16 -4 -25 15 -11 26 33 26 27 0 45 -5 45
-11z m225 -78 c3 -5 1 -12 -5 -16 -5 -3 -10 1 -10 9 0 18 6 21 15 7z m-81
-237 c3 -8 2 -12 -4 -9 -6 3 -10 10 -10 16 0 14 7 11 14 -7z m-1172 -66 c-9
-9 -12 -7 -12 12 0 19 3 21 12 12 9 -9 9 -15 0 -24z m592 8 c-21 -15 -30 -14
-19 3 3 6 14 11 23 11 13 0 13 -2 -4 -14z m-581 -96 c10 0 15 -5 12 -10 -7
-12 -85 -2 -100 13 -7 6 3 8 30 3 22 -3 48 -6 58 -6z m644 -82 c-3 -8 -6 -5
-6 6 -1 11 2 17 5 13 3 -3 4 -12 1 -19z m-698 -107 c0 -14 -3 -21 -5 -15 -3 8
-19 10 -43 7 -40 -6 -86 11 -76 28 4 5 10 7 14 5 4 -3 12 -1 19 2 6 4 29 6 52
4 36 -4 40 -7 39 -31z m201 29 c0 -5 -16 -14 -35 -20 -19 -6 -39 -19 -45 -28
-8 -15 -10 -15 -11 3 -1 17 -2 16 -9 -5 -7 -21 -8 -22 -10 -5 l-1 20 -9 -20
-9 -20 -1 20 -1 20 -9 -20 -9 -20 0 20 c-1 17 -3 17 -11 5 -7 -11 -10 -6 -10
21 l0 36 85 1 c47 0 85 -3 85 -8z m-283 -106 c-3 -3 -12 -4 -19 -1 -8 3 -5 6
6 6 11 1 17 -2 13 -5z m-81 -251 c-11 -12 -27 13 -20 32 7 17 8 17 17 -3 6
-12 7 -25 3 -29z m397 -1 c9 -8 17 -24 17 -36 0 -15 -3 -17 -12 -8 -7 7 -24
12 -39 12 -24 0 -39 15 -39 41 0 14 53 7 73 -9z m-73 -42 c20 -16 28 -32 28
-52 -1 -22 -3 -25 -12 -14 -6 7 -19 16 -28 19 -15 5 -18 0 -18 -27 0 -32 -23
-66 -33 -49 -3 4 -8 28 -12 52 -5 33 -4 42 5 36 10 -6 10 -3 2 11 -13 23 1 53
24 50 8 -1 28 -13 44 -26z m-165 -10 c6 -28 25 -43 25 -20 0 12 27 14 33 3 3
-5 0 -19 -6 -33 -8 -20 -11 -22 -14 -7 -6 22 -28 22 -52 -2 -10 -10 -23 -16
-27 -12 -14 10 -11 66 5 84 20 24 29 21 36 -13z m2 -112 c-3 -8 -6 -5 -6 6 -1
11 2 17 5 13 3 -3 4 -12 1 -19z m63 -4 c0 -2 -7 -4 -15 -4 -8 0 -15 4 -15 10
0 5 7 7 15 4 8 -4 15 -8 15 -10z m1004 -290 c3 -8 2 -12 -4 -9 -6 3 -10 10
-10 16 0 14 7 11 14 -7z m-1777 -94 c-1 -12 -5 -16 -10 -11 -5 5 -6 14 -3 20
11 16 15 13 13 -9z m1958 -60 c3 -5 1 -10 -4 -10 -6 0 -11 5 -11 10 0 6 2 10
4 10 3 0 8 -4 11 -10z m25 -70 c0 -5 -2 -10 -4 -10 -3 0 -8 5 -11 10 -3 6 -1
10 4 10 6 0 11 -4 11 -10z m-50 -37 c0 -7 -9 -13 -20 -13 -23 0 -24 4 -9 32 9
17 13 18 20 7 5 -8 9 -20 9 -26z m-19 -250 c-7 -115 -15 -212 -17 -218 -4 -10
6 340 11 385 1 14 3 31 4 39 0 8 4 11 8 8 3 -4 1 -100 -6 -214z m543 180 c-7
-8 -14 -20 -14 -26 0 -15 -20 14 -20 29 0 6 11 12 24 12 22 0 23 -2 10 -15z
m63 -9 c-3 -3 -12 -4 -19 -1 -8 3 -5 6 6 6 11 1 17 -2 13 -5z m33 -14 c0 -5
-2 -10 -4 -10 -3 0 -8 5 -11 10 -3 6 -1 10 4 10 6 0 11 -4 11 -10z m-2640 -40
c-21 -30 -40 -46 -40 -35 0 13 41 65 51 65 6 0 1 -13 -11 -30z m59 -37 c-12
-36 -12 -37 -21 -13 -7 18 -5 26 7 32 8 5 16 19 16 31 1 17 2 18 6 4 2 -9 -1
-34 -8 -54z m2426 49 c-3 -3 -11 0 -18 7 -9 10 -8 11 6 5 10 -3 15 -9 12 -12z
m-2519 -7 c-2 -15 -64 -105 -72 -105 -2 0 -2 11 2 25 5 19 2 26 -12 31 -11 3
-26 8 -34 11 -11 3 -9 8 10 18 39 20 75 23 73 5 -2 -9 4 -6 13 8 19 26 23 27
20 7z m2684 -29 c0 -3 -4 -8 -10 -11 -5 -3 -10 -1 -10 4 0 6 5 11 10 11 6 0
10 -2 10 -4z m-270 -27 c0 -6 -4 -7 -10 -4 -5 3 -10 11 -10 16 0 6 5 7 10 4 6
-3 10 -11 10 -16z m331 3 c-7 -2 -18 1 -23 6 -8 8 -4 9 13 5 13 -4 18 -8 10
-11z m-2685 -32 c-3 -17 -15 -44 -27 -60 -20 -26 -25 -44 -28 -89 -1 -8 -4
-12 -7 -8 -10 9 -34 -19 -34 -40 1 -14 4 -13 15 7 8 14 14 21 15 17 0 -5 12 6
27 24 l27 32 8 -28 c6 -23 2 -33 -17 -53 -14 -14 -25 -33 -25 -42 0 -23 -23
-42 -42 -35 -12 5 -138 -78 -138 -90 0 -13 52 15 84 47 50 47 62 48 36 3 -11
-19 -17 -35 -14 -35 20 0 65 34 69 53 4 14 14 23 26 23 23 0 24 -9 3 -30 -8
-9 -12 -16 -8 -16 3 0 1 -7 -6 -15 -25 -31 1 -27 30 3 45 47 67 42 33 -8 -14
-22 -12 -21 16 5 20 19 30 24 26 12 -4 -9 -11 -17 -16 -17 -5 0 -9 -6 -9 -14
0 -8 -30 -42 -67 -76 -63 -57 -203 -137 -359 -203 -56 -24 -60 -22 -32 16 74
98 156 261 138 272 -6 3 -10 2 -10 -2 0 -19 -59 -12 -93 11 -19 13 -38 22 -41
18 -3 -3 -6 2 -6 11 0 10 -4 18 -10 18 -5 1 -15 2 -21 3 -6 0 -23 19 -38 41
-15 22 -37 41 -49 43 -12 2 -22 7 -22 12 0 9 -120 37 -190 44 -25 2 -47 5 -50
5 -10 3 80 39 133 55 68 20 228 13 267 -12 13 -8 57 -17 97 -20 76 -5 89 -15
57 -46 -8 -9 -12 -21 -8 -27 3 -6 1 -14 -5 -18 -6 -4 -9 -15 -5 -25 5 -14 9
-15 16 -4 6 8 8 -3 5 -34 l-4 -46 24 29 c14 16 21 34 17 40 -5 8 -3 9 6 4 9
-5 10 -2 6 12 -4 11 0 33 9 49 8 16 15 34 15 41 0 19 40 107 52 114 6 4 17 5
24 2 6 -2 15 1 19 6 3 6 11 9 16 6 5 -4 12 1 15 9 3 9 10 14 14 11 4 -3 13 2
20 10 19 22 23 18 16 -15z m-276 -5 c0 -2 -15 -12 -32 -20 l-33 -16 24 21 c22
19 41 26 41 15z m300 -11 c0 -8 -5 -12 -10 -9 -6 4 -8 11 -5 16 9 14 15 11 15
-7z m2558 8 c-10 -2 -18 -11 -19 -20 0 -11 -2 -12 -6 -4 -2 6 -13 12 -23 12
-10 0 -21 4 -24 9 -4 5 15 9 41 8 27 0 40 -3 31 -5z m370 1 c-10 -2 -18 -9
-18 -15 0 -6 -3 -9 -6 -5 -10 10 6 27 24 26 15 -1 15 -2 0 -6z m77 -3 c4 -6
-5 -10 -20 -10 -14 0 -24 -4 -21 -9 3 -5 -6 -8 -20 -8 l-26 0 29 18 c31 21 49
24 58 9z m55 -20 c0 -5 -7 -10 -16 -10 -8 0 -12 5 -9 10 3 6 10 10 16 10 5 0
9 -4 9 -10z m-550 -20 c13 -8 13 -10 -2 -10 -9 0 -20 5 -23 10 -8 13 5 13 25
0z m605 0 c-3 -5 -11 -10 -16 -10 -6 0 -7 5 -4 10 3 6 11 10 16 10 6 0 7 -4 4
-10z m-3438 -22 c-2 -12 -12 -25 -23 -29 -27 -11 -36 -11 -29 0 3 5 -5 11 -17
13 -22 3 -22 4 7 20 43 25 66 23 62 -4z m3334 0 c10 -7 8 -8 -8 -3 -18 5 -22
3 -17 -9 4 -10 1 -16 -8 -16 -7 0 -21 -9 -31 -20 -17 -20 -43 -29 -32 -11 3 5
1 12 -5 16 -5 3 -10 1 -10 -5 0 -6 -5 -8 -11 -4 -8 5 -8 8 0 14 7 4 9 15 4 26
-7 19 -6 19 21 1 27 -18 28 -18 22 1 -6 17 -2 20 27 20 19 0 40 -4 48 -10z
m173 3 c3 -5 -6 -11 -19 -14 -27 -5 -44 8 -23 16 21 8 36 8 42 -2z m81 -1 c8
-13 -5 -13 -25 0 -13 8 -13 10 2 10 9 0 20 -4 23 -10z m-4200 -19 c3 -5 1 -12
-5 -16 -5 -3 -10 1 -10 9 0 18 6 21 15 7z m-34 -18 c12 -16 12 -17 -2 -6 -9 7
-20 9 -24 5 -5 -4 -5 -1 -1 6 9 16 11 15 27 -5z m709 1 c0 -2 -15 -4 -32 -3
-27 0 -29 2 -13 8 18 8 45 4 45 -5z m913 -10 c39 -8 73 -18 76 -23 4 -5 42
-12 85 -15 71 -4 79 -3 83 15 6 22 33 26 33 4 0 -15 25 -21 33 -7 2 4 2 1 1
-5 -4 -17 23 -17 28 -1 4 10 10 10 32 0 19 -9 33 -9 47 -2 15 8 21 7 25 -4 3
-8 14 -18 25 -21 23 -8 25 -25 3 -25 -8 0 -12 5 -9 10 3 6 -1 10 -10 10 -12 0
-14 -7 -10 -30 4 -22 1 -30 -9 -30 -21 0 -127 -122 -117 -135 5 -5 9 -44 10
-85 1 -56 -1 -71 -9 -60 -9 13 -11 12 -9 -5 3 -35 -1 -43 -18 -47 -11 -2 -16
-14 -17 -36 -1 -17 2 -32 7 -32 4 0 7 12 7 26 0 16 4 23 11 18 18 -11 5 -105
-15 -116 -11 -6 -17 -20 -16 -36 1 -15 2 -30 1 -34 -1 -10 -41 29 -41 40 0 5
-6 9 -14 9 -16 0 -9 -35 11 -55 7 -7 13 -25 13 -40 0 -20 -3 -23 -9 -12 -6 8
-7 18 -5 22 3 4 0 8 -5 8 -6 0 -11 -8 -12 -17 0 -14 -2 -15 -6 -3 -3 8 -13 23
-21 33 -13 15 -14 22 -4 37 7 11 12 27 12 35 0 9 5 13 10 10 15 -9 12 11 -4
24 -11 10 -15 8 -19 -6 -4 -17 -5 -16 -12 2 -11 27 -36 55 -49 55 -6 0 0 -9
13 -19 18 -14 22 -23 16 -37 -4 -11 -7 -29 -6 -41 3 -31 -10 -29 -44 7 -16 17
-32 30 -37 30 -4 0 -17 9 -28 20 -11 11 -30 20 -42 20 -13 0 -41 18 -65 42
-43 42 -59 73 -25 47 9 -7 1 4 -17 24 -33 35 -67 54 -41 22 11 -13 10 -14 -4
-9 -10 4 -15 12 -12 19 2 7 -6 23 -19 35 -35 33 -55 149 -29 171 8 6 14 18 14
25 0 8 6 11 15 8 11 -4 15 1 16 17 2 24 2 24 6 2 8 -40 19 -25 22 27 1 30 -2
50 -9 50 -21 0 -9 18 20 30 30 13 40 30 18 30 -7 1 -2 7 12 14 14 8 29 12 34
9 5 -3 40 -12 79 -19z m200 19 c-7 -2 -19 -2 -25 0 -7 3 -2 5 12 5 14 0 19 -2
13 -5z m85 -3 c-10 -6 -25 -7 -40 -1 -20 9 -18 10 17 10 31 0 36 -2 23 -9z
m2302 0 c-8 -5 -19 -10 -25 -10 -5 0 -3 5 5 10 8 5 20 10 25 10 6 0 3 -5 -5
-10z m-4095 -20 c-3 -5 -13 -10 -21 -10 -8 0 -14 5 -14 10 0 6 9 10 21 10 11
0 17 -4 14 -10z m865 -20 c-6 -12 -14 -20 -17 -17 -2 3 1 14 8 26 17 26 24 19
9 -9z m3294 23 c-5 -5 -11 -11 -14 -15 -3 -3 -14 0 -24 8 -19 13 -18 14 14 14
18 0 29 -3 24 -7z m-4214 -13 c0 -5 -4 -10 -10 -10 -5 0 -10 5 -10 10 0 6 5
10 10 10 6 0 10 -4 10 -10z m3630 0 l25 -8 -25 -1 c-14 0 -32 4 -40 9 -13 9
-13 10 0 9 8 -1 26 -5 40 -9z m650 -9 c0 -5 -6 -11 -12 -14 -18 -6 -39 3 -32
14 7 12 44 12 44 0z m-4340 -5 c0 -11 -19 -15 -25 -6 -3 5 1 10 9 10 9 0 16
-2 16 -4z m4328 -77 c21 -39 22 -41 3 -19 -11 14 -21 30 -21 37 0 7 -8 17 -17
23 -12 8 -13 10 -3 7 8 -2 26 -23 38 -48z m-428 25 c0 -2 -7 -4 -15 -4 -8 0
-15 4 -15 10 0 5 7 7 15 4 8 -4 15 -8 15 -10z m-4083 -20 c-3 -3 -12 -4 -19
-1 -8 3 -5 6 6 6 11 1 17 -2 13 -5z m4610 -19 c0 -11 -4 -12 -14 -4 -7 6 -13
15 -13 20 0 5 6 6 13 3 8 -3 14 -11 14 -19z m-4687 5 c8 -5 12 -11 10 -14 -3
-2 -14 2 -24 10 -22 15 -10 19 14 4z m-55 -10 c3 -5 -3 -10 -15 -10 -12 0 -18
5 -15 10 3 6 10 10 15 10 5 0 12 -4 15 -10z m1262 -12 c-3 -8 -6 -5 -6 6 -1
11 2 17 5 13 3 -3 4 -12 1 -19z m3528 2 c3 -5 17 -10 30 -10 13 0 27 -4 30
-10 3 -6 -4 -10 -16 -10 -21 0 -21 0 4 -20 14 -11 30 -20 35 -20 6 0 14 -4 17
-10 4 -7 -3 -7 -19 0 -38 14 -76 41 -76 53 0 5 -8 16 -17 23 -10 7 -13 14 -6
14 6 0 15 -4 18 -10z m-4855 -22 c0 -6 -3 -8 -7 -5 -9 10 -34 -14 -26 -26 4
-6 -2 -8 -15 -5 -13 4 -31 -1 -44 -12 -13 -10 -36 -18 -52 -18 -28 0 -29 1
-11 14 10 8 25 14 32 14 8 0 25 7 38 16 13 9 28 13 33 10 6 -3 15 1 22 9 15
18 30 20 30 3z m4824 -4 c3 -8 2 -12 -4 -9 -6 3 -10 10 -10 16 0 14 7 11 14
-7z m-4608 -9 c16 -8 23 -15 17 -15 -7 0 -13 -5 -13 -11 0 -7 10 -9 25 -5 15
4 25 2 25 -4 0 -6 5 -8 10 -5 6 3 13 0 16 -8 3 -9 14 -12 30 -9 19 3 23 1 19
-11 -4 -10 3 -18 24 -25 17 -6 31 -8 31 -4 0 4 9 -7 19 -24 16 -27 24 -31 51
-28 17 2 28 0 25 -6 -3 -5 1 -15 9 -22 11 -11 11 -15 -6 -30 -16 -14 -24 -15
-39 -5 -10 6 -19 17 -19 24 0 7 -2 13 -4 13 -2 0 -12 3 -22 7 -12 4 -15 3 -10
-5 4 -7 3 -12 -3 -12 -5 0 -13 5 -16 10 -3 6 -16 10 -28 11 -13 0 -17 3 -8 6
16 6 -53 42 -82 43 -10 0 -15 5 -12 10 3 6 -3 10 -13 10 -15 0 -19 5 -15 19 5
20 -20 35 -40 25 -7 -3 -3 2 7 10 19 16 19 16 -7 14 -15 -1 -27 -6 -27 -11 0
-5 -9 -7 -20 -4 -11 3 -18 2 -15 -3 7 -12 -31 -19 -74 -13 -24 3 -58 -1 -86
-11 l-47 -16 23 24 c30 29 115 52 134 36 8 -7 15 -7 19 -1 4 5 1 13 -6 17 -9
6 -5 10 12 14 49 12 87 10 116 -5z m4844 -66 c0 -5 -4 -9 -10 -9 -5 0 -10 7
-10 16 0 8 5 12 10 9 6 -3 10 -10 10 -16z m-195 1 c3 -5 2 -10 -4 -10 -5 0
-13 5 -16 10 -3 6 -2 10 4 10 5 0 13 -4 16 -10z m-5050 -40 c4 -6 -7 -10 -27
-9 -31 1 -32 1 -8 9 14 4 26 8 27 9 1 1 5 -3 8 -9z m156 -1 c15 -9 15 -9 -53
-13 -14 -1 -33 -8 -42 -15 -21 -17 -21 -7 0 18 18 20 70 26 95 10z m569 -103
c0 -2 -7 -6 -15 -10 -8 -3 -15 -1 -15 4 0 6 7 10 15 10 8 0 15 -2 15 -4z
m-780 -20 c0 -17 -15 -36 -29 -36 -9 0 -22 -10 -30 -21 -10 -17 -15 -19 -21
-8 -6 9 0 19 21 31 16 10 29 22 29 28 0 5 7 10 15 10 8 0 15 -2 15 -4z m25
-96 c3 -5 1 -10 -4 -10 -6 0 -11 5 -11 10 0 6 2 10 4 10 3 0 8 -4 11 -10z
m2225 -80 c0 -5 -2 -10 -4 -10 -3 0 -8 5 -11 10 -3 6 -1 10 4 10 6 0 11 -4 11
-10z m139 -80 c-6 -5 -9 -18 -6 -30 4 -17 3 -19 -9 -9 -8 6 -14 17 -14 25 0 7
-8 18 -17 23 -10 6 -13 11 -7 11 5 0 15 -5 21 -11 17 -17 33 -1 35 34 l1 32 4
-34 c3 -20 0 -37 -8 -41z m3204 8 c9 -31 2 -33 -11 -3 -6 14 -8 25 -3 25 5 0
11 -10 14 -22z m-3283 2 c0 -5 -2 -10 -4 -10 -3 0 -8 5 -11 10 -3 6 -1 10 4
10 6 0 11 -4 11 -10z m117 -92 c-3 -8 -6 -5 -6 6 -1 11 2 17 5 13 3 -3 4 -12
1 -19z m3201 -3 c-3 -3 -9 2 -12 12 -6 14 -5 15 5 6 7 -7 10 -15 7 -18z
m-3161 -27 c-3 -8 -6 -5 -6 6 -1 11 2 17 5 13 3 -3 4 -12 1 -19z"/>
<path d="M4255 4921 c-3 -6 4 -9 15 -8 11 1 20 5 20 9 0 11 -28 10 -35 -1z"/>
<path d="M4345 4850 c3 -5 8 -10 11 -10 2 0 4 5 4 10 0 6 -5 10 -11 10 -5 0
-7 -4 -4 -10z"/>
<path d="M3210 4770 c0 -5 5 -10 10 -10 6 0 10 5 10 10 0 6 -4 10 -10 10 -5 0
-10 -4 -10 -10z"/>
<path d="M3270 4750 c0 -5 5 -10 11 -10 5 0 7 5 4 10 -3 6 -8 10 -11 10 -2 0
-4 -4 -4 -10z"/>
<path d="M3250 4720 c0 -5 5 -10 10 -10 6 0 10 5 10 10 0 6 -4 10 -10 10 -5 0
-10 -4 -10 -10z"/>
<path d="M3290 4709 c0 -5 5 -7 10 -4 6 3 10 8 10 11 0 2 -4 4 -10 4 -5 0 -10
-5 -10 -11z"/>
<path d="M2850 3936 c0 -2 7 -9 15 -16 13 -11 14 -10 9 4 -5 14 -24 23 -24 12z"/>
<path d="M3085 3670 c3 -5 8 -10 11 -10 2 0 4 5 4 10 0 6 -5 10 -11 10 -5 0
-7 -4 -4 -10z"/>
<path d="M2921 1783 c-27 -32 -47 -60 -44 -63 5 -5 79 74 94 102 17 31 2 20
-50 -39z"/>
<path d="M2673 1723 c9 -2 25 -2 35 0 9 3 1 5 -18 5 -19 0 -27 -2 -17 -5z"/>
<path d="M2645 1691 c-3 -6 10 -7 32 -4 50 8 55 13 10 13 -20 0 -38 -4 -42 -9z"/>
<path d="M2866 1643 c-10 -10 -16 -12 -12 -5 4 6 2 12 -3 12 -6 0 -11 -7 -11
-15 0 -8 5 -15 11 -15 17 0 49 20 49 30 0 15 -14 12 -34 -7z"/>
<path d="M3665 1740 c3 -5 8 -10 11 -10 2 0 4 5 4 10 0 6 -5 10 -11 10 -5 0
-7 -4 -4 -10z"/>
<path d="M3610 1730 c0 -5 5 -10 10 -10 6 0 10 5 10 10 0 6 -4 10 -10 10 -5 0
-10 -4 -10 -10z"/>
<path d="M3990 1385 c0 -8 5 -15 10 -15 6 0 10 7 10 15 0 8 -4 15 -10 15 -5 0
-10 -7 -10 -15z"/>
<path d="M3941 1164 c0 -11 3 -14 6 -6 3 7 2 16 -1 19 -3 4 -6 -2 -5 -13z"/>
<path d="M4180 5845 c0 -2 14 -10 30 -19 17 -8 30 -11 30 -6 0 4 -13 13 -30
19 -16 5 -30 8 -30 6z"/>
<path d="M4295 5780 c10 -11 20 -20 23 -20 3 0 -3 9 -13 20 -10 11 -20 20 -23
20 -3 0 3 -9 13 -20z"/>
<path d="M10 5740 c0 -5 7 -10 15 -10 8 0 15 5 15 10 0 6 -7 10 -15 10 -8 0
-15 -4 -15 -10z"/>
<path d="M4360 5701 c0 -5 7 -11 15 -15 8 -3 15 -1 15 3 0 5 -7 11 -15 15 -8
3 -15 1 -15 -3z"/>
<path d="M35 5560 c3 -5 8 -10 11 -10 2 0 4 5 4 10 0 6 -5 10 -11 10 -5 0 -7
-4 -4 -10z"/>
<path d="M2870 5520 c-13 -8 -12 -10 3 -10 9 0 17 5 17 10 0 12 -1 12 -20 0z"/>
<path d="M120 5503 c-19 -2 -41 -11 -47 -20 -8 -10 -13 -12 -13 -5 0 7 -3 11
-8 11 -4 -1 -9 0 -12 1 -19 7 -40 7 -40 -1 0 -27 99 -38 124 -14 8 8 24 15 35
15 11 0 23 5 26 10 6 10 1 10 -65 3z"/>
<path d="M1 4938 c0 -18 3 -27 6 -20 2 6 14 13 26 13 17 1 18 2 5 6 -10 2 -18
11 -18 19 0 8 -4 14 -10 14 -5 0 -10 -15 -9 -32z"/>
<path d="M20 4700 c0 -5 5 -10 11 -10 5 0 7 5 4 10 -3 6 -8 10 -11 10 -2 0 -4
-4 -4 -10z"/>
<path d="M180 4540 c0 -5 5 -10 11 -10 5 0 7 5 4 10 -3 6 -8 10 -11 10 -2 0
-4 -4 -4 -10z"/>
<path d="M7 4504 c-9 -51 2 -72 19 -38 18 34 18 60 0 67 -9 4 -15 -5 -19 -29z"/>
<path d="M110 4464 c0 -11 5 -14 16 -10 9 3 22 6 30 6 9 0 12 5 9 10 -10 17
-55 12 -55 -6z"/>
<path d="M125 4403 c-4 -13 -14 -23 -23 -23 -8 0 -21 -8 -28 -17 -13 -17 -14
-17 -20 4 -3 12 -16 23 -30 26 -23 4 -24 2 -24 -49 0 -58 14 -76 35 -48 11 15
16 17 26 7 7 -7 25 -13 39 -13 14 0 35 -6 46 -14 13 -10 23 -11 31 -4 7 6 22
8 33 5 11 -3 22 -2 25 3 3 4 -12 11 -33 15 -54 10 -63 20 -50 57 7 20 7 32 1
37 -6 3 -13 13 -16 21 -4 11 -7 10 -12 -7z"/>
<path d="M616 4321 c-4 -7 -5 -15 -2 -18 9 -9 19 4 14 18 -4 11 -6 11 -12 0z"/>
<path d="M395 4266 c26 -35 55 -53 55 -36 0 6 -4 10 -10 10 -5 0 -10 7 -10 16
0 10 6 14 15 10 20 -7 19 4 -2 20 -10 7 -31 14 -46 14 l-28 0 26 -34z"/>
<path d="M485 4180 c-3 -5 -1 -10 4 -10 6 0 11 5 11 10 0 6 -2 10 -4 10 -3 0
-8 -4 -11 -10z"/>
<path d="M112 4136 c10 -7 15 -16 11 -19 -3 -4 -2 -7 4 -7 6 0 16 6 22 14 12
15 -4 26 -37 26 -16 -1 -16 -2 0 -14z"/>
<path d="M0 4122 c0 -9 4 -23 9 -31 13 -19 68 -5 74 20 4 16 1 19 -13 14 -9
-3 -29 -1 -44 4 -22 9 -26 8 -26 -7z"/>
<path d="M214 4125 c-4 -8 -12 -15 -20 -15 -8 0 -14 -7 -14 -15 0 -8 -8 -15
-17 -16 -10 0 -3 -6 14 -12 18 -7 32 -16 32 -21 -2 -28 58 -27 74 0 4 8 14 14
22 14 10 0 14 9 13 25 -2 20 -9 26 -35 31 -18 3 -36 10 -39 15 -8 14 -24 11
-30 -6z"/>
<path d="M52 4047 c-41 -11 -42 -12 -37 -41 12 -60 22 -71 70 -73 l45 -1 -29
29 c-16 16 -34 29 -40 29 -6 0 -11 7 -11 15 0 9 10 15 26 15 27 0 69 -41 69
-70 1 -8 7 -14 13 -12 7 1 12 -5 10 -15 -2 -10 2 -18 9 -18 6 0 15 -3 19 -7 4
-5 14 -8 23 -8 11 0 10 3 -5 14 -21 16 -22 15 29 49 36 24 37 26 18 36 -12 7
-22 7 -25 2 -3 -5 -14 -7 -25 -4 -11 3 -21 -2 -24 -11 -10 -24 -25 -19 -42 14
-14 28 -14 30 2 30 13 0 10 6 -12 20 -16 11 -32 19 -35 18 -3 0 -24 -6 -48
-11z"/>
<path d="M480 4035 c-7 -8 -9 -15 -4 -15 5 -1 30 -2 57 -4 41 -3 47 -1 47 15
0 16 -8 19 -44 19 -26 0 -48 -6 -56 -15z"/>
<path d="M507 3950 c-3 -11 -2 -20 2 -20 3 0 12 9 19 20 10 16 10 20 -2 20 -7
0 -16 -9 -19 -20z"/>
<path d="M455 3941 c-7 -12 12 -24 25 -16 11 7 4 25 -10 25 -5 0 -11 -4 -15
-9z"/>
<path d="M728 3923 c6 -2 18 -2 25 0 6 3 1 5 -13 5 -14 0 -19 -2 -12 -5z"/>
<path d="M0 3910 c0 -4 9 -10 20 -13 11 -3 20 -2 20 3 0 4 -9 10 -20 13 -11 3
-20 2 -20 -3z"/>
<path d="M125 3891 c-7 -22 -14 -25 -39 -15 -9 3 -13 11 -9 17 4 7 0 8 -11 4
-10 -4 -20 -7 -22 -7 -2 0 -4 -4 -4 -10 0 -5 9 -10 20 -10 13 0 18 -5 14 -15
-9 -23 -31 -18 -38 10 -4 14 -13 25 -21 25 -12 0 -15 -19 -13 -107 0 -60 3
-93 5 -75 3 24 9 32 24 32 10 0 19 -7 19 -15 0 -28 1 -30 22 -38 15 -5 27 -2
42 12 15 14 26 17 37 10 13 -6 16 -5 15 8 0 9 5 18 13 21 10 3 13 -1 9 -16 -4
-15 0 -22 16 -26 11 -3 23 -1 24 4 2 6 12 10 21 10 10 0 26 9 37 21 12 13 26
18 40 15 32 -8 36 4 10 25 -31 24 -33 24 -40 -6 -6 -25 -20 -30 -50 -19 -9 3
-13 11 -9 18 15 24 10 33 -16 28 l-26 -4 27 28 c26 26 28 27 46 11 24 -22 34
-12 19 20 -10 23 -14 24 -64 18 -35 -4 -53 -3 -54 4 -1 6 -2 17 -3 23 -2 22
-34 20 -41 -1z m5 -71 c0 -5 -4 -10 -10 -10 -5 0 -10 5 -10 10 0 6 5 10 10 10
6 0 10 -4 10 -10z"/>
<path d="M560 3889 c0 -5 5 -7 10 -4 6 3 10 8 10 11 0 2 -4 4 -10 4 -5 0 -10
-5 -10 -11z"/>
<path d="M797 3893 c-13 -12 -7 -21 19 -26 19 -3 24 -1 20 10 -3 8 -6 17 -6
19 0 7 -26 5 -33 -3z"/>
<path d="M570 3830 c20 -13 43 -13 35 0 -3 6 -16 10 -28 10 -18 0 -19 -2 -7
-10z"/>
<path d="M381 3808 c-1 -16 4 -28 9 -28 6 0 10 -10 10 -22 0 -21 1 -22 18 -4
16 16 16 18 -4 34 -11 10 -23 24 -27 32 -3 9 -6 3 -6 -12z"/>
<path d="M480 3786 c18 -23 25 -67 11 -75 -11 -7 -4 -51 8 -51 3 0 7 27 9 60
2 53 0 61 -20 71 -21 11 -22 11 -8 -5z"/>
<path d="M548 3793 c-20 -5 -22 -12 -9 -32 5 -7 13 -11 19 -7 14 9 39 -3 46
-21 4 -10 2 -13 -8 -10 -8 3 -22 0 -32 -8 -18 -13 -18 -14 -1 -51 14 -29 21
-34 27 -23 5 7 5 18 1 22 -19 19 1 46 37 49 35 3 59 28 27 28 -9 0 -14 4 -10
10 4 6 15 6 30 0 33 -12 34 7 1 21 -17 8 -29 8 -45 0 -27 -15 -47 -5 -30 15 9
11 7 14 -12 13 -13 -1 -32 -3 -41 -6z"/>
<path d="M121 3679 c-14 -5 -31 -7 -38 -5 -7 3 -13 -1 -13 -10 0 -13 -8 -15
-35 -12 l-35 4 0 -63 c0 -51 3 -63 16 -63 13 0 15 7 9 40 -8 46 9 54 40 20 10
-11 13 -20 7 -20 -23 0 -12 -18 18 -32 17 -7 30 -16 30 -19 0 -4 14 -9 30 -11
21 -3 30 0 30 10 0 9 6 12 16 8 9 -3 23 -6 32 -6 9 -1 30 -11 46 -25 26 -20
28 -26 16 -40 -8 -9 -22 -14 -33 -11 -15 4 -17 2 -9 -6 8 -8 21 -8 49 1 45 14
113 11 131 -7 16 -15 39 -5 23 11 -7 7 -7 16 0 28 7 14 5 21 -11 31 -11 7 -20
23 -20 35 0 28 -10 29 -38 3 -27 -25 -29 -25 -27 2 1 12 10 26 21 30 11 5 26
19 33 30 15 25 -1 41 -35 35 -12 -2 -28 2 -37 8 -21 15 -77 7 -71 -10 3 -7 1
-16 -4 -19 -15 -9 -41 4 -36 17 5 16 -6 31 -33 46 -26 13 -39 13 -72 0z m169
-110 c0 -11 -4 -18 -10 -14 -5 3 -7 12 -3 20 7 21 13 19 13 -6z"/>
<path d="M715 3680 c-3 -5 1 -10 9 -10 9 0 16 5 16 10 0 6 -4 10 -9 10 -6 0
-13 -4 -16 -10z"/>
<path d="M655 3660 c3 -5 8 -10 11 -10 2 0 4 5 4 10 0 6 -5 10 -11 10 -5 0 -7
-4 -4 -10z"/>
<path d="M782 3614 c-16 -11 -21 -22 -17 -35 4 -11 2 -19 -5 -19 -6 0 -8 5 -5
10 3 6 1 10 -4 10 -6 0 -11 -9 -11 -20 0 -21 24 -28 35 -10 4 6 11 7 17 4 7
-5 9 2 4 20 -4 17 -2 34 5 42 15 18 9 18 -19 -2z"/>
<path d="M434 3604 c3 -8 6 -19 6 -23 0 -4 14 -5 31 -3 29 4 31 3 24 -19 -7
-22 -7 -23 10 -9 10 8 19 13 21 10 1 -3 5 -2 8 1 3 3 -6 11 -22 18 -15 7 -40
19 -56 27 -25 13 -28 13 -22 -2z"/>
<path d="M830 3590 c0 -19 11 -26 23 -14 8 8 -3 34 -14 34 -5 0 -9 -9 -9 -20z"/>
<path d="M900 3595 c0 -8 7 -15 15 -15 8 0 15 7 15 15 0 8 -7 15 -15 15 -8 0
-15 -7 -15 -15z"/>
<path d="M710 3550 c0 -5 5 -10 10 -10 6 0 10 5 10 10 0 6 -4 10 -10 10 -5 0
-10 -4 -10 -10z"/>
<path d="M0 3385 c0 -101 2 -114 16 -108 12 4 15 1 12 -13 -2 -10 -10 -18 -16
-16 -19 4 -16 -117 3 -124 17 -7 11 -43 -9 -56 -19 -13 3 -9 24 4 22 14 33 8
25 -14 -4 -10 -15 -13 -31 -10 -23 4 -24 2 -24 -42 0 -26 4 -45 9 -42 12 8 48
-21 38 -30 -4 -5 -17 -3 -27 4 -19 11 -20 9 -20 -35 0 -27 5 -55 10 -63 9 -15
13 -14 83 15 9 4 17 3 17 -3 0 -18 -41 -62 -58 -62 -27 -1 -52 -68 -52 -141 1
-55 2 -62 14 -46 7 9 11 28 9 41 -3 13 0 27 6 30 6 4 11 20 11 35 0 27 16 51
33 51 5 0 7 -18 5 -40 -2 -22 -2 -40 0 -40 2 0 17 9 33 21 47 33 70 3 24 -33
-29 -22 -32 -38 -9 -38 11 0 1 -16 -30 -47 l-47 -48 -17 23 c-25 32 -32 19
-32 -55 0 -49 3 -63 15 -63 10 0 17 14 21 40 8 52 24 52 24 0 0 -24 5 -42 12
-45 7 -2 83 -6 168 -9 193 -6 194 -6 175 -54 -17 -39 -8 -54 30 -50 15 2 20
11 21 38 1 19 2 40 3 47 0 7 22 13 53 15 45 3 54 7 68 30 12 22 13 32 3 47
-15 25 3 43 35 34 21 -5 22 -2 22 55 0 34 4 64 10 67 6 4 10 -18 10 -59 l0
-66 58 0 57 0 1 35 c1 19 -3 35 -7 35 -16 0 -9 22 14 41 12 10 16 18 9 19 -18
0 16 33 51 48 35 15 37 15 37 0 0 -6 7 -20 16 -30 16 -16 16 -18 0 -24 -12 -5
-16 -20 -16 -70 0 -57 2 -64 20 -64 16 0 20 7 20 33 0 55 12 137 20 132 3 -2
5 -43 4 -90 l-3 -85 55 0 55 0 -2 67 c-2 49 -7 71 -21 85 -17 17 -17 18 2 18
11 0 20 5 20 10 0 6 -15 10 -34 10 -18 0 -39 7 -46 15 -7 8 -17 12 -23 8 -5
-3 -7 -1 -4 4 4 6 0 16 -8 23 -20 16 -66 100 -55 100 5 0 15 -8 22 -17 19 -26
82 -57 86 -44 2 6 10 18 18 26 12 12 11 17 -11 39 -29 29 -55 34 -55 11 0 -8
-6 -15 -14 -15 -7 0 -19 7 -26 15 -7 8 -19 15 -26 15 -8 0 -14 -7 -14 -15 0
-16 -12 -20 -24 -8 -4 4 3 16 16 26 13 10 18 16 11 13 -6 -3 -13 -1 -15 5 -3
9 -9 9 -26 0 -17 -9 -28 -9 -49 3 l-28 14 26 10 c31 12 42 35 26 51 -8 8 -7
16 6 28 16 16 19 16 50 -2 42 -25 58 -41 49 -50 -4 -5 0 -6 9 -2 13 4 16 1 12
-14 -3 -10 -1 -19 5 -19 5 0 12 10 15 23 2 12 8 30 12 40 5 13 2 17 -14 17
-12 0 -21 5 -21 10 0 13 23 13 35 1 18 -17 59 -17 62 -1 2 10 -5 16 -23 17
-15 0 -39 10 -55 22 -15 12 -37 21 -47 21 -11 0 -25 7 -32 15 -7 8 -19 15 -27
15 -8 0 -11 5 -7 12 5 8 2 9 -10 5 -22 -9 -66 20 -59 39 3 9 -1 14 -12 14 -9
0 -13 5 -10 10 3 6 1 10 -4 10 -14 0 -14 -77 -1 -85 10 -6 14 -45 4 -45 -18 0
-44 23 -44 39 0 10 -7 24 -15 31 -12 10 -16 8 -25 -15 -8 -20 -15 -25 -28 -20
-24 9 -24 9 -53 1 -18 -5 -37 -2 -57 8 -36 19 -47 10 -26 -21 14 -23 14 -25
-5 -30 -12 -3 -21 -12 -21 -19 0 -8 -4 -14 -10 -14 -21 0 -60 24 -65 42 -4 10
-9 19 -13 19 -4 1 -16 3 -28 4 -29 3 -72 33 -79 56 -6 19 -16 23 -44 19 -8 -1
-12 4 -8 13 6 17 -12 27 -47 27 -23 0 -61 32 -51 42 3 3 -6 9 -20 12 -29 7
-25 26 6 26 11 0 17 -4 14 -10 -3 -5 -1 -10 4 -10 16 0 13 14 -9 43 -24 30
-24 33 -4 41 10 4 22 -1 29 -11 11 -15 17 -15 39 -5 15 7 44 12 65 12 28 0 43
7 62 28 13 15 20 24 15 20 -5 -4 -14 -4 -21 2 -6 5 -38 12 -70 15 -33 3 -71
13 -84 22 -18 11 -26 13 -29 4 -6 -17 -22 -3 -22 19 0 24 -37 50 -72 50 l-28
0 0 -115z m70 70 c0 -8 -4 -15 -10 -15 -5 0 -7 7 -4 15 4 8 8 15 10 15 2 0 4
-7 4 -15z m24 -92 c11 -28 -10 -35 -22 -8 -9 20 -9 25 2 25 8 0 17 -8 20 -17z
m21 -143 c3 -5 1 -10 -4 -10 -6 0 -11 5 -11 10 0 6 2 10 4 10 3 0 8 -4 11 -10z
m32 -142 c-3 -8 -6 -5 -6 6 -1 11 2 17 5 13 3 -3 4 -12 1 -19z m78 11 c4 -5
-5 -9 -19 -9 -14 0 -26 4 -26 8 0 11 39 12 45 1z m15 -49 c12 0 24 -9 30 -22
8 -22 9 -22 9 5 1 23 5 27 29 27 54 0 72 -10 66 -36 -6 -21 -3 -24 24 -24 19
0 41 -10 58 -25 27 -25 68 -33 79 -15 9 14 48 13 63 -2 7 -7 12 -20 12 -29 0
-14 -8 -16 -54 -12 -53 5 -54 4 -49 -21 4 -19 11 -26 29 -26 13 0 24 -4 24
-10 0 -5 6 -10 13 -10 6 0 28 -5 48 -10 34 -9 37 -14 43 -53 3 -23 7 -51 8
-62 2 -14 11 -19 32 -20 16 0 31 -6 33 -12 4 -10 -13 -13 -60 -13 -64 0 -65 0
-71 -31 -3 -17 -6 -44 -6 -60 0 -15 -4 -31 -10 -34 -5 -3 -7 0 -4 8 3 9 -3 17
-17 20 -15 4 -20 11 -15 22 9 26 -24 75 -51 75 -16 0 -23 6 -23 19 0 15 -8 21
-32 23 -25 2 -34 8 -36 26 -2 12 1 22 7 22 6 0 11 -5 11 -11 0 -5 5 -7 10 -4
6 4 17 1 25 -5 18 -15 35 -5 35 20 0 28 -19 34 -40 15 -18 -17 -20 -17 -26 -1
-4 10 -2 22 4 28 16 16 -15 81 -46 96 -25 11 -29 10 -47 -12 -17 -21 -23 -23
-37 -12 -11 8 -14 17 -7 27 14 23 11 32 -11 26 -12 -3 -29 4 -45 19 -14 13
-32 21 -40 18 -10 -4 -15 0 -15 15 0 11 -11 28 -24 36 -23 15 -24 18 -8 35 15
18 18 18 39 5 12 -8 32 -15 43 -15z m369 4 c8 -7 -12 -24 -28 -24 -18 0 -41
18 -41 33 0 7 59 0 69 -9z m-489 -15 c0 -5 -4 -9 -10 -9 -5 0 -10 7 -10 16 0
8 5 12 10 9 6 -3 10 -10 10 -16z m795 1 c3 -5 -1 -10 -9 -10 -9 0 -16 5 -16
10 0 6 4 10 9 10 6 0 13 -4 16 -10z m-707 -97 c-2 -9 -8 -18 -15 -20 -7 -3 -9
3 -6 16 6 25 26 28 21 4z m-79 -11 l30 -18 -29 -17 c-28 -17 -29 -17 -44 4
-14 21 -12 49 5 49 5 0 22 -8 38 -18z m-79 -32 c0 -5 -5 -10 -11 -10 -5 0 -7
5 -4 10 3 6 8 10 11 10 2 0 4 -4 4 -10z m330 -31 c0 -5 -7 -9 -15 -9 -15 0
-20 12 -9 23 8 8 24 -1 24 -14z m10 -138 c0 -6 -4 -13 -10 -16 -5 -3 -10 1
-10 9 0 9 5 16 10 16 6 0 10 -4 10 -9z m4 -166 c-4 -8 -10 -15 -15 -15 -4 0
-6 7 -3 15 4 8 10 15 15 15 4 0 6 -7 3 -15z"/>
<path d="M370 2931 c0 -14 29 -21 36 -9 4 7 3 8 -4 4 -7 -4 -12 -2 -12 3 0 6
-4 11 -10 11 -5 0 -10 -4 -10 -9z"/>
<path d="M510 2801 c0 -5 5 -13 10 -16 6 -3 10 -2 10 4 0 5 -4 13 -10 16 -5 3
-10 2 -10 -4z"/>
<path d="M533 2745 c-3 -9 -3 -18 0 -21 9 -9 27 6 27 22 0 19 -19 18 -27 -1z"/>
<path d="M602 2731 c-17 -10 1 -25 40 -35 23 -5 26 -4 21 11 -11 31 -36 40
-61 24z"/>
<path d="M2367 3481 c4 -17 8 -18 24 -8 13 8 15 13 6 19 -22 14 -35 9 -30 -11z"/>
<path d="M2268 3468 c12 -12 24 -19 28 -15 10 10 -16 37 -34 37 -13 0 -12 -4
6 -22z"/>
<path d="M460 3461 c0 -12 2 -21 4 -21 2 0 11 -3 19 -6 9 -3 20 2 26 14 7 13
7 19 -2 19 -7 0 -20 4 -29 8 -14 5 -18 2 -18 -14z"/>
<path d="M585 3418 c-13 -15 -28 -28 -34 -28 -5 0 -8 -9 -6 -20 3 -13 -2 -20
-12 -20 -9 0 -13 6 -10 14 7 18 -17 39 -50 42 -24 3 -24 2 -8 -16 10 -11 24
-16 33 -13 15 6 15 4 0 -14 -10 -11 -18 -29 -18 -41 0 -12 -4 -22 -10 -22 -5
0 -10 -9 -10 -21 0 -17 -4 -20 -24 -15 -14 3 -28 0 -35 -8 -16 -19 -63 -6 -76
21 -9 18 -14 19 -33 9 -13 -7 -19 -15 -16 -19 4 -4 0 -7 -8 -7 -21 0 -29 -37
-12 -54 8 -8 14 -19 14 -25 0 -6 7 -12 15 -12 8 -1 27 -2 43 -3 15 -2 53 -6
85 -10 48 -7 61 -6 77 9 14 12 28 16 50 12 27 -6 30 -4 30 18 0 24 12 31 49
25 7 -1 31 12 52 29 46 37 49 38 49 6 0 -19 7 -26 27 -31 15 -4 34 -14 42 -22
13 -12 16 -11 28 12 15 29 28 33 37 11 6 -17 46 -21 46 -5 0 6 9 10 19 10 29
0 36 18 16 41 -16 17 -19 17 -30 2 -13 -17 -40 -9 -29 9 4 5 -9 24 -27 40 -26
24 -36 28 -50 20 -14 -9 -19 -6 -29 17 -6 15 -10 41 -8 57 3 25 -1 29 -24 32
-23 3 -27 0 -21 -14 5 -13 3 -15 -7 -9 -8 5 -34 12 -58 15 -39 6 -45 4 -67
-22z m85 -117 c0 -10 -41 -33 -48 -27 -3 3 0 6 7 6 7 0 9 5 6 10 -9 15 4 30
20 23 8 -3 15 -8 15 -12z"/>
<path d="M780 3405 c0 -26 18 -45 42 -45 23 0 23 19 1 27 -10 4 -23 14 -30 22
-11 14 -12 14 -13 -4z"/>
<path d="M2150 3414 c0 -2 9 -8 19 -13 14 -8 20 -7 24 3 4 9 -3 14 -19 14 -13
0 -24 -2 -24 -4z"/>
<path d="M2337 3390 c-37 -23 -46 -33 -22 -24 16 6 18 5 8 -7 -7 -7 -13 -21
-13 -31 0 -15 8 -18 44 -18 49 0 82 -24 46 -33 -24 -6 -28 -52 -5 -61 10 -3
15 1 15 14 0 10 8 21 18 23 15 4 15 5 -2 6 -18 1 -18 2 -2 20 22 25 8 55 -25
56 -19 0 -24 6 -26 34 -2 19 -4 35 -6 36 -1 1 -14 -5 -30 -15z"/>
<path d="M2096 3383 c-11 -11 -6 -23 9 -23 8 0 15 4 15 9 0 13 -16 22 -24 14z"/>
<path d="M2160 3320 c0 -5 -7 -7 -15 -4 -22 9 -18 -5 8 -27 29 -24 39 -24 67
6 13 14 18 25 12 25 -6 0 -14 -4 -17 -10 -9 -15 -25 -12 -25 5 0 8 -7 15 -15
15 -8 0 -15 -4 -15 -10z"/>
<path d="M2488 3323 c-9 -2 -20 -13 -23 -24 -10 -30 -3 -30 23 2 13 16 22 28
20 28 -2 -1 -11 -3 -20 -6z"/>
<path d="M390 3308 c0 -11 -6 -15 -19 -11 -16 4 -19 1 -14 -17 4 -14 12 -20
27 -18 23 3 34 34 17 51 -8 8 -11 7 -11 -5z"/>
<path d="M2020 3286 c0 -2 7 -7 16 -10 8 -3 12 -2 9 4 -6 10 -25 14 -25 6z"/>
<path d="M2070 3273 c0 -5 5 -15 10 -23 8 -12 10 -11 10 8 0 12 -4 22 -10 22
-5 0 -10 -3 -10 -7z"/>
<path d="M2464 3244 c1 -9 9 -20 17 -25 10 -6 6 -10 -19 -15 -18 -4 -35 -10
-37 -14 -3 -5 -15 -6 -26 -3 -19 5 -21 3 -17 -20 6 -33 -11 -36 -38 -5 -17 19
-17 21 -1 15 24 -9 23 27 -3 53 -20 20 -36 19 -76 -7 -12 -7 -29 -10 -39 -6
-14 5 -17 3 -12 -10 5 -12 1 -17 -13 -17 -11 0 -29 -11 -42 -24 -26 -27 -88
-41 -88 -19 0 19 -37 16 -58 -5 -10 -10 -32 -17 -51 -17 -39 0 -53 -20 -21
-30 30 -10 98 4 80 15 -12 7 -12 10 2 15 26 10 58 -25 47 -52 -7 -19 -13 -21
-43 -16 -27 4 -37 2 -42 -11 -3 -9 -13 -16 -20 -16 -8 0 -17 -7 -20 -15 -4 -8
-11 -12 -16 -8 -24 14 -96 13 -108 -2 -7 -8 -22 -15 -34 -16 -11 0 -15 -3 -8
-6 6 -2 12 -12 12 -20 0 -12 -3 -13 -14 -4 -9 8 -16 8 -20 2 -4 -5 -1 -13 5
-17 8 -4 7 -9 -2 -15 -11 -7 -11 -9 -1 -9 9 0 10 -5 2 -19 -13 -25 -4 -30 39
-25 59 7 80 44 25 44 -18 0 -25 5 -22 16 8 43 68 43 68 0 0 -21 6 -25 40 -31
38 -6 47 -25 12 -25 -33 0 -45 -15 -32 -40 15 -28 5 -38 -21 -22 -17 11 -25
10 -46 -3 -20 -14 -31 -15 -49 -6 -13 6 -24 16 -24 23 0 9 -3 8 -10 -2 -8 -13
-10 -12 -10 3 0 13 -6 17 -22 15 -19 -2 -23 -10 -24 -37 -1 -19 -6 -37 -12
-39 -7 -2 -12 -8 -12 -14 0 -7 16 -9 44 -5 47 7 62 1 45 -19 -7 -9 -5 -14 10
-19 12 -3 21 -11 21 -16 0 -5 7 -9 15 -9 18 0 35 39 35 78 l0 27 18 -22 c9
-12 30 -27 45 -32 31 -12 27 -36 -4 -28 -14 4 -19 0 -19 -14 0 -10 -7 -19 -15
-19 -8 0 -15 -6 -15 -14 0 -21 -21 -31 -30 -16 -7 11 -14 10 -36 -5 -26 -17
-28 -17 -41 1 -7 10 -13 12 -13 6 0 -7 -14 -12 -32 -12 -37 0 -67 -15 -55 -27
5 -4 12 -1 18 7 8 13 10 13 19 0 15 -23 12 -29 -24 -44 -37 -15 -62 -42 -29
-32 14 4 19 1 19 -14 0 -15 -5 -18 -25 -13 -17 4 -22 2 -17 -6 8 -13 56 -15
56 -2 0 5 9 11 20 14 27 7 25 -3 -7 -28 -33 -27 -24 -50 13 -33 19 9 27 9 37
-1 9 -9 5 -17 -21 -37 -17 -14 -32 -29 -32 -33 0 -11 76 -25 112 -22 24 2 26
-1 22 -25 -3 -15 -7 -31 -10 -36 -11 -17 25 -7 61 18 29 19 44 24 64 18 14 -4
35 -7 46 -8 24 -1 33 -48 14 -74 -11 -14 -11 -15 1 -4 8 6 27 12 44 12 16 0
40 9 52 21 24 22 88 29 106 11 5 -5 28 -7 50 -4 29 3 44 1 52 -9 12 -15 69
-49 82 -49 4 0 3 5 -4 12 -24 24 -11 27 24 7 20 -11 41 -18 48 -16 6 3 29 -5
51 -17 41 -22 67 -25 98 -11 33 14 16 24 -43 24 -72 -1 -84 5 -70 32 9 15 15
17 30 9 25 -14 27 -13 33 10 3 11 1 20 -4 20 -5 0 -9 9 -9 20 0 25 11 25 60 0
40 -20 53 -40 26 -40 -9 0 -12 -7 -9 -21 7 -25 30 -36 46 -20 16 16 29 13 26
-6 -3 -35 1 -41 31 -45 22 -3 29 -1 26 8 -5 13 23 24 62 24 30 0 28 15 -8 40
-37 26 -39 45 -5 36 37 -9 35 31 -2 45 -98 38 -113 50 -141 107 l-20 42 31 0
c18 0 39 4 47 10 12 7 12 11 -3 28 -17 19 -17 20 3 25 21 5 28 27 9 27 -7 0
-9 10 -5 25 6 22 3 25 -19 25 -31 0 -53 32 -60 89 -3 24 -10 51 -15 60 -12 24
3 46 26 36 11 -5 26 -10 34 -11 8 -2 25 -6 38 -10 13 -4 22 -2 22 4 0 18 -36
32 -79 32 -23 0 -41 5 -41 10 0 6 -6 10 -14 10 -9 0 -15 17 -18 52 -4 41 -2
56 13 72 11 11 19 14 19 8 0 -7 8 -12 18 -12 15 1 15 2 -3 16 -11 8 -30 13
-41 11 -13 -2 -26 3 -33 15 -6 10 -14 17 -19 17 -18 -3 -46 3 -34 8 6 2 12 11
12 18 0 8 15 17 34 21 39 7 57 31 23 30 -13 -1 -23 6 -25 17 -2 12 3 17 17 17
12 0 21 6 21 15 0 8 5 15 10 15 6 0 10 4 10 9 0 5 -11 8 -25 7 -19 -1 -23 -5
-19 -18 4 -13 -2 -19 -23 -23 -15 -4 -36 -11 -46 -16 -20 -11 -57 -3 -57 12 0
5 7 9 17 9 22 0 93 32 93 42 0 4 -4 8 -10 8 -5 0 -10 7 -10 15 0 8 -9 19 -19
25 -15 8 -19 7 -17 -6z m-185 -80 c8 -19 8 -24 -2 -24 -21 0 -47 23 -51 47 -4
20 -2 21 19 11 12 -5 28 -21 34 -34z m-39 -50 c0 -17 -22 -14 -28 4 -2 7 3 12
12 12 9 0 16 -7 16 -16z m207 -76 c-3 -8 -6 -5 -6 6 -1 11 2 17 5 13 3 -3 4
-12 1 -19z m-167 6 c0 -8 -19 -13 -24 -6 -3 5 1 9 9 9 8 0 15 -2 15 -3z m74
-15 c5 -5 8 -10 5 -13 -6 -5 -99 -14 -99 -10 0 2 8 12 18 23 17 19 56 19 76 0z
m-258 -28 c-4 -6 -19 -11 -34 -11 l-27 1 24 20 c24 20 51 13 37 -10z m419 -1
c-3 -5 -12 -7 -20 -3 -21 7 -19 13 6 13 11 0 18 -4 14 -10z m-82 -25 c-3 -9 2
-21 12 -29 15 -11 15 -13 1 -25 -16 -14 -25 -10 -78 32 -24 19 -23 25 10 30
56 8 62 8 55 -8z m-163 -54 c0 -14 -37 -14 -45 -1 -4 6 -1 17 5 25 10 12 14
12 26 0 8 -7 14 -18 14 -24z m-140 -15 c0 -3 -4 -8 -10 -11 -5 -3 -10 -1 -10
4 0 6 5 11 10 11 6 0 10 -2 10 -4z m334 -52 c17 -6 22 -24 8 -24 -5 0 -17 7
-28 15 -19 15 -8 20 20 9z m-719 -54 c-3 -5 -10 -10 -16 -10 -5 0 -9 5 -9 10
0 6 7 10 16 10 8 0 12 -4 9 -10z m790 -30 c19 -8 19 -9 -2 -9 -12 -1 -25 4
-28 9 -7 12 2 12 30 0z m-259 -57 c-7 -7 -26 7 -26 19 0 6 6 6 15 -2 9 -7 13
-15 11 -17z m164 -25 c35 -4 40 -38 6 -38 -14 0 -26 -4 -26 -10 0 -5 -7 -10
-14 -10 -11 0 -15 11 -13 39 1 26 5 37 12 31 5 -4 21 -10 35 -12z m-230 -44
c0 -12 -6 -15 -22 -10 -13 3 -27 6 -31 6 -5 0 -5 5 -2 10 10 17 55 12 55 -6z
m-50 -18 c0 -3 -4 -8 -10 -11 -5 -3 -10 -1 -10 4 0 6 5 11 10 11 6 0 10 -2 10
-4z m-221 -15 c15 -10 7 -31 -12 -31 -7 0 -18 9 -25 20 -10 17 -10 20 5 20 10
0 24 -4 32 -9z m116 0 c3 -5 19 -12 35 -16 47 -10 47 -26 0 -19 -33 5 -43 3
-55 -12 -16 -23 -23 -18 -31 24 -6 29 -4 32 19 32 14 0 28 -4 32 -9z m407 -11
c13 -6 28 -22 35 -36 9 -21 8 -26 -7 -34 -16 -8 -22 -5 -37 20 -10 17 -28 33
-40 36 -13 4 -20 10 -17 15 7 12 38 11 66 -1z m-692 -15 c-2 -17 -40 -26 -40
-11 0 14 18 26 33 22 5 -1 8 -6 7 -11z m67 -80 c0 -8 -6 -15 -13 -15 -15 0
-26 15 -17 24 12 11 30 6 30 -9z m773 -51 c0 -10 -7 -14 -22 -12 -32 5 -35 28
-4 28 17 0 26 -5 26 -16z m-123 -40 c-1 -30 -4 -35 -22 -30 -11 3 -23 6 -27 6
-11 0 11 53 25 62 18 11 25 0 24 -38z m-617 -20 c0 -2 -7 -4 -15 -4 -8 0 -15
4 -15 10 0 5 7 7 15 4 8 -4 15 -8 15 -10z m320 -15 c0 -5 -7 -9 -15 -9 -15 0
-20 12 -9 23 8 8 24 -1 24 -14z m528 -49 c6 0 12 -4 12 -10 0 -5 -9 -10 -20
-10 -11 0 -20 -4 -20 -9 0 -5 9 -11 20 -14 22 -6 28 -37 8 -37 -12 0 -58 69
-58 86 0 3 10 4 23 0 12 -3 28 -6 35 -6z"/>
<path d="M2010 2595 c0 -9 5 -15 11 -13 6 2 11 8 11 13 0 5 -5 11 -11 13 -6 2
-11 -4 -11 -13z"/>
<path d="M2015 3220 c-18 -8 -17 -9 8 -9 15 -1 27 4 27 9 0 12 -8 12 -35 0z"/>
<path d="M2062 3208 c6 -18 43 -22 65 -8 16 10 16 11 1 6 -10 -3 -20 -1 -23 4
-9 15 -47 12 -43 -2z"/>
<path d="M420 3105 c-14 -16 -3 -20 19 -6 8 5 9 11 3 15 -5 3 -15 -1 -22 -9z"/>
<path d="M1806 3085 c4 -8 8 -15 10 -15 2 0 4 7 4 15 0 8 -4 15 -10 15 -5 0
-7 -7 -4 -15z"/>
<path d="M1870 3090 c0 -5 5 -10 10 -10 6 0 10 5 10 10 0 6 -4 10 -10 10 -5 0
-10 -4 -10 -10z"/>
<path d="M1090 3045 c0 -11 5 -15 14 -12 8 3 17 1 20 -6 3 -7 5 -3 3 8 -3 25
-37 34 -37 10z"/>
<path d="M2560 3045 c-7 -9 -11 -18 -8 -20 3 -3 11 1 18 10 7 9 11 18 8 20 -3
3 -11 -1 -18 -10z"/>
<path d="M1497 3013 c-30 -42 -24 -53 31 -53 33 0 33 0 30 42 -4 56 -26 60
-61 11z"/>
<path d="M1260 3005 c-25 -14 -24 -14 18 -15 42 0 56 12 26 24 -19 7 -14 8
-44 -9z"/>
<path d="M1420 3000 c0 -11 7 -20 15 -20 8 0 15 9 15 20 0 11 -7 20 -15 20 -8
0 -15 -9 -15 -20z"/>
<path d="M1655 2998 c-7 -28 -1 -48 16 -48 12 0 12 40 0 59 -8 12 -11 9 -16
-11z"/>
<path d="M2737 2915 c-4 -8 -15 -15 -26 -15 -21 0 -37 -17 -26 -28 3 -3 9 -1
13 5 4 7 22 11 40 11 40 -1 44 3 22 25 -15 16 -18 16 -23 2z"/>
<path d="M2590 2905 c-10 -12 -10 -15 4 -15 9 0 16 7 16 15 0 8 -2 15 -4 15
-2 0 -9 -7 -16 -15z"/>
<path d="M5215 2830 c-18 -8 -17 -9 7 -9 15 -1 30 4 33 9 7 12 -12 12 -40 0z"/>
<path d="M0 2810 c0 -13 11 -13 30 0 12 8 11 10 -7 10 -13 0 -23 -4 -23 -10z"/>
<path d="M2622 2788 c3 -7 18 -14 34 -16 28 -3 28 -3 9 12 -24 19 -48 21 -43
4z"/>
<path d="M5200 2790 c0 -5 11 -10 25 -10 14 0 25 5 25 10 0 6 -11 10 -25 10
-14 0 -25 -4 -25 -10z"/>
<path d="M5400 2791 c0 -6 4 -13 10 -16 6 -3 7 1 4 9 -7 18 -14 21 -14 7z"/>
<path d="M2855 2771 c-3 -5 -1 -12 5 -16 5 -3 10 1 10 9 0 18 -6 21 -15 7z"/>
<path d="M5054 2765 c-18 -14 -17 -15 20 -13 22 2 41 9 44 16 5 17 -40 15 -64
-3z"/>
<path d="M5292 2758 c24 -42 41 -58 62 -58 19 1 19 2 3 11 -13 8 -15 14 -7 30
9 16 7 19 -14 19 -14 0 -28 5 -31 10 -13 21 -25 9 -13 -12z"/>
<path d="M2629 2747 c15 -19 66 -23 76 -7 3 6 0 10 -8 10 -8 0 -30 3 -48 7
-31 6 -33 5 -20 -10z"/>
<path d="M5408 2748 c7 -7 12 -20 12 -30 0 -12 8 -18 23 -18 20 0 23 4 19 30
-4 26 -8 30 -35 30 -24 0 -28 -3 -19 -12z"/>
<path d="M4900 2740 c0 -5 5 -10 10 -10 6 0 10 5 10 10 0 6 -4 10 -10 10 -5 0
-10 -4 -10 -10z"/>
<path d="M7707 2726 c-4 -10 -5 -21 -2 -24 9 -9 17 6 13 25 -3 17 -4 17 -11
-1z"/>
<path d="M2697 2710 c-3 -11 -1 -23 4 -26 5 -3 9 2 9 10 0 9 6 16 14 16 8 0
18 5 21 10 3 6 -5 10 -18 10 -16 0 -26 -7 -30 -20z"/>
<path d="M7893 2692 c-18 -9 -33 -20 -33 -24 0 -14 27 -9 40 7 6 8 15 14 18
13 20 -2 32 3 27 12 -8 13 -13 12 -52 -8z"/>
<path d="M5390 2690 c0 -5 5 -10 10 -10 6 0 10 5 10 10 0 6 -4 10 -10 10 -5 0
-10 -4 -10 -10z"/>
<path d="M5917 2694 c-5 -9 30 -60 37 -53 3 2 8 18 12 34 7 28 6 29 -10 16
-14 -12 -19 -12 -26 -2 -4 7 -10 9 -13 5z"/>
<path d="M1160 2675 c0 -8 9 -15 20 -15 11 0 20 7 20 15 0 8 -9 15 -20 15 -11
0 -20 -7 -20 -15z"/>
<path d="M1220 2677 c0 -18 78 -33 93 -18 14 14 9 17 -45 25 -38 6 -48 4 -48
-7z"/>
<path d="M7495 2680 c3 -5 8 -10 11 -10 2 0 4 5 4 10 0 6 -5 10 -11 10 -5 0
-7 -4 -4 -10z"/>
<path d="M7730 2677 c-37 -17 -45 -29 -42 -62 1 -16 3 -38 3 -47 0 -25 22 -22
34 4 6 12 21 23 35 25 14 2 32 11 40 20 14 14 12 15 -13 9 -39 -9 -49 20 -16
45 22 17 22 19 4 18 -11 0 -31 -6 -45 -12z"/>
<path d="M7530 2671 c0 -5 -16 -13 -35 -17 -19 -3 -35 -10 -35 -15 0 -5 4 -9
8 -9 13 0 32 -48 26 -65 -4 -8 -1 -22 6 -30 9 -11 9 -15 1 -15 -6 0 -14 6 -17
14 -3 8 -19 14 -38 14 -19 0 -44 6 -57 12 -20 11 -25 10 -44 -12 -14 -17 -21
-36 -19 -59 3 -38 -10 -59 -36 -59 -15 0 -17 8 -14 50 3 40 1 48 -11 43 -8 -3
-15 0 -15 6 0 6 -9 11 -21 11 -18 0 -20 -4 -15 -25 5 -19 1 -28 -18 -40 -16
-11 -22 -22 -19 -35 3 -11 0 -20 -6 -20 -6 0 -11 -7 -11 -15 0 -8 5 -15 10
-15 20 0 9 -31 -14 -41 -14 -7 -27 -22 -31 -36 -3 -13 -15 -27 -27 -32 -19 -7
-18 -9 13 -15 29 -6 31 -8 17 -17 -10 -5 -18 -19 -18 -30 0 -11 -7 -22 -15
-24 -8 -3 -23 -8 -32 -12 -17 -6 -17 -6 -1 -10 15 -4 15 -8 5 -24 -10 -17 -9
-22 6 -30 23 -14 21 -25 -5 -33 -19 -5 -21 -8 -8 -16 22 -14 81 -12 112 4 25
13 30 12 52 -5 25 -20 46 -22 166 -21 30 0 75 1 100 1 25 0 66 3 91 6 41 6 48
4 63 -16 9 -13 16 -19 16 -13 0 5 14 15 32 22 37 14 59 2 51 -28 -6 -24 -62
-33 -163 -27 -41 3 -96 2 -123 -1 -44 -4 -46 -6 -28 -19 22 -15 131 -20 271
-12 98 5 112 11 110 47 -3 48 -1 52 34 52 58 0 95 11 89 26 -4 10 -17 14 -41
12 -29 -2 -37 1 -40 16 -4 17 0 18 49 12 30 -3 64 -9 77 -12 l22 -6 -1 273
c-1 151 -4 263 -6 249 -4 -24 -47 -70 -65 -70 -4 0 -8 -9 -8 -20 0 -11 -6 -20
-14 -20 -8 0 -16 -6 -19 -12 -2 -8 -8 -9 -13 -4 -5 5 -4 11 4 13 9 3 11 16 6
39 -5 25 -3 34 7 34 8 0 22 7 32 14 16 13 14 14 -20 9 -21 -2 -44 -5 -50 -5
-17 -2 -16 -3 3 -23 15 -14 15 -20 3 -43 -17 -32 -35 -53 -41 -46 -3 2 -22 -3
-42 -11 -41 -17 -76 -12 -76 11 0 25 -26 26 -71 5 -23 -12 -44 -19 -46 -17 -2
2 -5 16 -6 32 -2 27 1 29 40 34 60 7 41 27 -24 26 -68 -1 -85 15 -54 48 22 23
22 26 7 41 -9 9 -16 12 -16 6z m31 -194 c-13 -13 -26 -3 -16 12 3 6 11 8 17 5
6 -4 6 -10 -1 -17z m183 -92 c-4 -8 -8 -15 -10 -15 -2 0 -4 7 -4 15 0 8 4 15
10 15 5 0 7 -7 4 -15z"/>
<path d="M1410 2654 c0 -17 22 -14 28 4 2 7 -3 12 -12 12 -9 0 -16 -7 -16 -16z"/>
<path d="M1470 2662 c0 -10 60 -25 68 -17 8 8 0 12 -35 20 -19 4 -33 3 -33 -3z"/>
<path d="M1160 2603 c0 -16 -3 -45 -6 -65 -6 -35 -5 -38 17 -38 23 0 24 4 27
65 3 60 1 65 -17 65 -16 0 -21 -6 -21 -27z"/>
<path d="M1215 2569 c-4 -33 -6 -62 -4 -63 2 -2 23 -7 45 -11 l42 -6 7 62 c8
69 2 79 -52 79 -31 0 -31 -1 -38 -61z"/>
<path d="M2914 2605 c-16 -13 -17 -16 -4 -25 23 -15 33 -12 27 10 -3 10 0 21
7 24 7 3 7 5 0 5 -5 1 -19 -6 -30 -14z"/>
<path d="M1510 2595 l25 -14 -25 -1 c-35 0 -50 -18 -50 -57 0 -31 1 -32 25
-21 14 6 25 14 25 18 0 4 9 10 20 13 12 3 20 14 20 27 0 16 4 21 16 16 13 -5
14 -4 6 7 -7 8 -10 16 -8 18 2 2 -14 5 -37 6 -41 3 -42 2 -17 -12z"/>
<path d="M1405 2500 c-3 -5 1 -10 10 -10 9 0 13 5 10 10 -3 6 -8 10 -10 10 -2
0 -7 -4 -10 -10z"/>
<path d="M2660 2480 c-19 -12 -2 -30 27 -30 15 0 34 -7 43 -15 15 -14 18 -14
23 -1 3 8 0 20 -8 26 -20 17 -71 29 -85 20z"/>
<path d="M1066 2471 c-3 -5 1 -14 9 -21 8 -7 15 -18 15 -25 0 -8 20 -15 53
-19 109 -13 112 -13 112 9 0 16 -9 21 -47 26 -26 4 -57 14 -70 23 -25 17 -64
21 -72 7z m59 -31 c3 -5 1 -10 -4 -10 -6 0 -11 5 -11 10 0 6 2 10 4 10 3 0 8
-4 11 -10z"/>
<path d="M1455 2429 c-4 -5 -17 -9 -28 -8 -44 3 -57 -1 -57 -20 0 -15 11 -19
61 -25 141 -14 242 -1 148 19 -19 4 -33 15 -36 26 -4 14 -14 19 -44 19 -21 0
-41 -5 -44 -11z"/>
<path d="M6866 2371 c-4 -7 -5 -15 -2 -18 9 -9 19 4 14 18 -4 11 -6 11 -12 0z"/>
<path d="M5960 2319 c0 -5 5 -7 10 -4 6 3 10 8 10 11 0 2 -4 4 -10 4 -5 0 -10
-5 -10 -11z"/>
<path d="M2203 2268 c-6 -7 -13 -56 -17 -108 -9 -133 -15 -153 -54 -165 -18
-5 -32 -13 -32 -17 0 -16 79 -48 100 -40 21 8 22 14 23 175 1 92 -1 167 -4
167 -4 0 -11 -6 -16 -12z"/>
<path d="M6835 2270 c-3 -5 -1 -10 4 -10 6 0 11 5 11 10 0 6 -2 10 -4 10 -3 0
-8 -4 -11 -10z"/>
<path d="M6040 2229 c0 -20 8 -23 34 -13 24 9 19 21 -9 26 -19 4 -25 1 -25
-13z"/>
<path d="M2748 2213 c7 -3 16 -2 19 1 4 3 -2 6 -13 5 -11 0 -14 -3 -6 -6z"/>
<path d="M2316 2197 c3 -10 9 -15 12 -12 3 3 0 11 -7 18 -10 9 -11 8 -5 -6z"/>
<path d="M5665 2200 c-4 -6 -15 -8 -25 -5 -12 4 -19 -1 -23 -15 -7 -25 13 -38
25 -16 5 9 15 16 23 16 18 0 28 17 16 24 -5 4 -13 2 -16 -4z"/>
<path d="M2902 2165 c-34 -13 -69 -22 -77 -19 -7 3 -40 -6 -72 -20 -32 -13
-68 -28 -80 -31 -13 -4 -23 -11 -23 -16 0 -6 -9 -7 -20 -4 -13 4 -34 -1 -56
-14 -19 -12 -42 -21 -50 -21 -8 0 -14 -7 -14 -15 0 -18 80 -21 112 -4 18 10
20 9 15 -5 -6 -14 -3 -15 13 -6 14 7 20 7 20 0 0 -5 -5 -10 -12 -10 -6 0 -9
-3 -5 -6 11 -11 77 18 99 44 13 15 36 37 52 50 38 29 22 28 -34 -4 -34 -20
-40 -21 -27 -6 9 10 14 21 11 25 -9 9 35 29 48 21 6 -4 9 -3 6 2 -4 5 24 10
60 11 46 1 59 -1 42 -7 -22 -7 -23 -8 -4 -9 34 -2 84 28 84 50 0 24 -11 23
-88 -6z m-327 -135 c3 -5 1 -10 -4 -10 -6 0 -11 5 -11 10 0 6 2 10 4 10 3 0 8
-4 11 -10z"/>
<path d="M6844 2156 c-7 -29 3 -49 18 -40 7 4 8 2 4 -5 -11 -17 3 -51 19 -45
8 3 19 21 25 41 10 29 9 37 -6 54 -24 27 -52 24 -60 -5z"/>
<path d="M6995 2170 c-3 -5 3 -10 14 -10 12 0 21 5 21 10 0 6 -6 10 -14 10 -8
0 -18 -4 -21 -10z"/>
<path d="M6415 2152 c-16 -10 -32 -18 -34 -20 -3 -1 1 -8 7 -14 18 -18 15 -28
-9 -28 -15 0 -19 5 -15 18 4 11 -1 22 -13 29 -24 15 -56 1 -92 -40 -21 -23
-35 -28 -109 -36 -47 -5 -105 -6 -130 -1 -27 5 -52 4 -63 -2 -10 -5 -26 -7
-35 -3 -15 5 -15 4 1 -12 14 -14 34 -18 90 -18 40 -1 154 -7 255 -15 177 -13
183 -15 188 -37 4 -13 4 -29 1 -37 -3 -8 1 -22 8 -33 19 -24 18 -33 -1 -33
-11 0 -14 -6 -8 -22 10 -34 14 -35 36 -8 12 15 15 26 9 28 -6 2 -11 13 -11 25
0 11 -6 36 -12 55 -12 32 -11 35 17 58 17 13 24 24 18 24 -17 0 -17 112 -1
128 19 19 -61 14 -97 -6z"/>
<path d="M5650 2102 c44 -20 52 -21 69 -8 11 9 9 12 -10 17 -13 4 -40 7 -59 7
l-35 0 35 -16z"/>
<path d="M2853 2103 c9 -2 23 -2 30 0 6 3 -1 5 -18 5 -16 0 -22 -2 -12 -5z"/>
<path d="M7975 2090 c-19 -7 -19 -8 -2 -15 19 -8 31 -2 26 13 -2 5 -13 6 -24
2z"/>
<path d="M5726 2064 c-23 -23 -13 -26 44 -15 39 8 41 9 13 10 -17 1 -33 6 -35
12 -3 8 -11 5 -22 -7z"/>
<path d="M6534 2029 c-8 -14 14 -29 43 -29 27 0 40 19 22 31 -20 12 -57 11
-65 -2z"/>
<path d="M6781 2029 c-13 -5 -32 -7 -41 -4 -20 6 -50 -3 -50 -16 0 -5 25 -9
55 -9 41 0 57 4 62 15 8 21 2 24 -26 14z"/>
<path d="M2475 1990 l-70 -6 60 -4 c52 -2 55 -4 25 -9 -22 -4 -29 -9 -20 -12
20 -8 80 1 80 12 0 5 6 9 14 9 8 0 18 5 21 10 7 11 4 11 -110 0z"/>
<path d="M2785 1992 c-5 -4 -21 -20 -35 -36 l-25 -28 35 14 c24 10 35 21 36
36 1 12 1 22 0 22 0 0 -5 -4 -11 -8z"/>
<path d="M2670 1970 c-13 -8 -12 -10 3 -10 9 0 17 5 17 10 0 12 -1 12 -20 0z"/>
<path d="M5865 1960 c-3 -6 1 -7 9 -4 18 7 21 14 7 14 -6 0 -13 -4 -16 -10z"/>
<path d="M5910 1966 c0 -2 13 -6 29 -8 17 -2 28 -1 25 4 -5 8 -54 12 -54 4z"/>
<path d="M2190 1917 c-186 -85 -280 -130 -277 -134 5 -5 97 34 209 89 54 26
109 50 123 54 19 5 57 34 44 34 -2 0 -47 -20 -99 -43z"/>
<path d="M2585 1910 c-11 -4 -25 -5 -31 -3 -7 2 -15 0 -19 -6 -3 -6 -1 -11 5
-11 6 0 9 -4 6 -8 -3 -5 1 -9 9 -9 8 0 15 7 15 15 0 16 14 8 16 -9 1 -5 2 -14
3 -19 1 -7 8 -7 22 1 13 6 17 14 12 18 -6 3 -12 13 -14 22 -3 12 -10 14 -24 9z"/>
<path d="M7440 1870 c0 -13 11 -13 30 0 12 8 11 10 -7 10 -13 0 -23 -4 -23
-10z"/>
<path d="M6805 1850 c3 -5 21 -10 40 -10 19 0 37 5 40 10 4 6 -12 10 -40 10
-28 0 -44 -4 -40 -10z"/>
<path d="M7313 1753 c15 -2 39 -2 55 0 15 2 2 4 -28 4 -30 0 -43 -2 -27 -4z"/>
<path d="M6478 1713 c6 -2 18 -2 25 0 6 3 1 5 -13 5 -14 0 -19 -2 -12 -5z"/>
<path d="M7820 1589 c0 -5 5 -7 10 -4 6 3 10 8 10 11 0 2 -4 4 -10 4 -5 0 -10
-5 -10 -11z"/>
<path d="M7850 1547 c0 -7 8 -13 19 -13 11 0 17 5 14 13 -3 7 -11 13 -19 13
-8 0 -14 -6 -14 -13z"/>
<path d="M7462 1538 c-2 -17 -44 -35 -71 -29 -7 1 -10 -2 -6 -9 4 -6 17 -10
28 -9 12 0 27 1 33 0 16 -1 12 -51 -3 -51 -23 0 -13 -20 10 -21 21 0 21 -1 -3
-11 l-25 -10 25 -11 c25 -10 25 -10 -10 -17 -19 -4 -31 -8 -26 -9 6 0 1 -8
-10 -16 -18 -15 -15 -15 36 -9 40 4 61 13 78 30 l23 24 -33 0 c-39 0 -25 21
16 23 27 2 35 12 14 20 -10 3 -10 7 0 20 22 26 9 42 -31 39 -34 -3 -36 -2 -40
30 -2 18 -5 25 -5 16z"/>
<path d="M7981 1374 c0 -11 3 -14 6 -6 3 7 2 16 -1 19 -3 4 -6 -2 -5 -13z"/>
<path d="M7545 1340 c-7 -12 22 -12 50 0 17 7 15 9 -12 9 -17 1 -35 -3 -38 -9z"/>
<path d="M7477 1323 c-13 -12 -7 -23 13 -23 11 0 20 7 20 15 0 15 -21 21 -33
8z"/>
<path d="M7986 1284 c-3 -8 -11 -12 -18 -8 -8 5 -9 0 -5 -16 3 -13 2 -31 -3
-41 -7 -12 -6 -19 4 -22 21 -8 33 13 35 61 1 44 -3 52 -13 26z"/>
<path d="M7468 1273 c12 -2 30 -2 40 0 9 3 -1 5 -23 4 -22 0 -30 -2 -17 -4z"/>
<path d="M7903 1254 c-17 -18 -19 -26 -10 -30 15 -5 21 -51 7 -59 -6 -4 -6
-15 0 -31 6 -14 10 -41 10 -60 0 -19 4 -34 9 -34 13 0 21 40 12 59 -8 18 -6
150 3 159 9 8 7 22 -1 21 -5 -1 -18 -12 -30 -25z"/>
<path d="M7515 1250 c-3 -6 1 -7 9 -4 18 7 21 14 7 14 -6 0 -13 -4 -16 -10z"/>
<path d="M982 1196 c-9 -20 -10 -32 -3 -39 13 -13 24 12 19 44 -3 22 -4 22
-16 -5z"/>
<path d="M7466 1196 c3 -9 15 -16 25 -16 11 0 22 -7 25 -15 7 -16 44 -21 44
-5 0 5 7 7 16 3 12 -4 15 -1 12 13 -2 14 -13 19 -43 21 -22 1 -50 5 -63 9 -18
5 -21 3 -16 -10z"/>
<path d="M7963 1093 c1 -35 6 -63 11 -63 4 0 6 -14 4 -30 -3 -19 -1 -29 6 -27
17 5 20 68 4 78 -10 7 -11 12 0 29 20 32 16 76 -7 76 -18 0 -20 -7 -18 -63z"/>
<path d="M838 971 c-12 -50 -10 -77 3 -64 5 5 9 30 7 54 l-3 44 -7 -34z"/>
<path d="M7910 980 c0 -5 4 -10 9 -10 6 0 13 5 16 10 3 6 -1 10 -9 10 -9 0
-16 -4 -16 -10z"/>
<path d="M725 499 c-11 -17 1 -21 15 -4 8 9 8 15 2 15 -6 0 -14 -5 -17 -11z"/>
<path d="M738 440 c-16 -22 -16 -25 -2 -33 21 -12 26 -5 22 30 l-3 28 -17 -25z"/>
<path d="M680 366 c0 -8 -3 -23 -7 -33 -6 -16 -5 -16 10 -4 19 15 22 37 7 46
-5 3 -10 0 -10 -9z"/>
<path d="M0 294 c0 -33 1 -34 38 -34 21 0 62 -6 92 -14 30 -8 66 -13 80 -11
14 1 31 3 38 4 18 1 10 36 -8 37 -8 0 -24 -7 -34 -15 -11 -9 -17 -11 -13 -5 4
8 -11 14 -46 19 -28 5 -55 8 -58 7 -4 -1 -10 9 -13 21 -4 17 -13 22 -41 24
-34 2 -35 0 -35 -33z"/>
<path d="M491 206 c-7 -16 -9 -37 -5 -45 5 -12 9 -7 16 17 12 44 4 65 -11 28z"/>
<path d="M707 157 c-3 -8 -2 -29 3 -48 5 -26 9 -30 14 -16 13 37 13 43 1 60
-10 14 -14 15 -18 4z"/>
<path d="M200 153 c-44 -5 -59 -19 -31 -28 12 -3 21 -13 21 -21 0 -19 26 -18
34 1 4 13 10 14 26 5 14 -8 26 -8 41 1 21 11 20 11 -10 30 -17 10 -35 18 -39
17 -4 0 -23 -3 -42 -5z"/>
<path d="M360 90 c0 -15 6 -32 13 -39 10 -11 10 -14 0 -18 -19 -7 -15 -33 5
-33 9 0 22 12 29 26 11 23 9 29 -17 58 l-30 31 0 -25z"/>
<path d="M315 80 c-4 -6 -24 -19 -46 -30 -31 -16 -44 -18 -59 -10 -22 12 -44
5 -34 -11 3 -5 14 -7 25 -4 14 5 17 3 13 -9 -5 -13 4 -16 55 -16 l61 0 0 45
c0 45 -4 54 -15 35z m-30 -50 c3 -6 -4 -10 -17 -10 -18 0 -20 2 -8 10 19 12
18 12 25 0z"/>
<path d="M525 80 c3 -5 -3 -19 -14 -31 -24 -26 -17 -49 16 -49 23 0 25 3 19
31 -3 17 -6 38 -6 45 0 8 -5 14 -11 14 -5 0 -7 -4 -4 -10z"/>
<path d="M440 30 c0 -19 3 -21 12 -12 9 9 9 15 0 24 -9 9 -12 7 -12 -12z"/>
<path d="M10 20 c-17 -11 -8 -23 14 -18 9 2 12 8 8 15 -5 8 -13 9 -22 3z"/>
</g>
</svg>
